<svg xmlns="http://www.w3.org/2000/svg" xmlns:xlink="http://www.w3.org/1999/xlink" width="6912" zoomAndPan="magnify" viewBox="0 0 5184 2592.000001" height="3456" preserveAspectRatio="xMidYMid meet" version="1.0"><defs><g/><linearGradient x1="0" gradientTransform="matrix(0.749711, 0, 0, 0.749711, 0.999613, 0.0000999614)" y1="0" x2="6911.999712" gradientUnits="userSpaceOnUse" y2="0" id="3502a01e89"><stop stop-opacity="1" stop-color="rgb(31.799316%, 43.899536%, 100%)" offset="0"/><stop stop-opacity="1" stop-color="rgb(32.064819%, 43.884277%, 99.908447%)" offset="0.00390625"/><stop stop-opacity="1" stop-color="rgb(32.331848%, 43.869019%, 99.81842%)" offset="0.0078125"/><stop stop-opacity="1" stop-color="rgb(32.597351%, 43.85376%, 99.728394%)" offset="0.0117188"/><stop stop-opacity="1" stop-color="rgb(32.86438%, 43.838501%, 99.638367%)" offset="0.015625"/><stop stop-opacity="1" stop-color="rgb(33.129883%, 43.823242%, 99.54834%)" offset="0.0195312"/><stop stop-opacity="1" stop-color="rgb(33.396912%, 43.807983%, 99.458313%)" offset="0.0234375"/><stop stop-opacity="1" stop-color="rgb(33.66394%, 43.792725%, 99.36676%)" offset="0.0273438"/><stop stop-opacity="1" stop-color="rgb(33.930969%, 43.777466%, 99.276733%)" offset="0.03125"/><stop stop-opacity="1" stop-color="rgb(34.196472%, 43.762207%, 99.186707%)" offset="0.0351562"/><stop stop-opacity="1" stop-color="rgb(34.463501%, 43.746948%, 99.09668%)" offset="0.0390625"/><stop stop-opacity="1" stop-color="rgb(34.729004%, 43.731689%, 99.006653%)" offset="0.0429688"/><stop stop-opacity="1" stop-color="rgb(34.996033%, 43.716431%, 98.916626%)" offset="0.046875"/><stop stop-opacity="1" stop-color="rgb(35.261536%, 43.701172%, 98.826599%)" offset="0.0507812"/><stop stop-opacity="1" stop-color="rgb(35.528564%, 43.685913%, 98.736572%)" offset="0.0546875"/><stop stop-opacity="1" stop-color="rgb(35.794067%, 43.670654%, 98.64502%)" offset="0.0585938"/><stop stop-opacity="1" stop-color="rgb(36.061096%, 43.655396%, 98.554993%)" offset="0.0625"/><stop stop-opacity="1" stop-color="rgb(36.328125%, 43.640137%, 98.464966%)" offset="0.0664062"/><stop stop-opacity="1" stop-color="rgb(36.595154%, 43.624878%, 98.374939%)" offset="0.0703125"/><stop stop-opacity="1" stop-color="rgb(36.860657%, 43.609619%, 98.284912%)" offset="0.0742188"/><stop stop-opacity="1" stop-color="rgb(37.127686%, 43.59436%, 98.194885%)" offset="0.078125"/><stop stop-opacity="1" stop-color="rgb(37.393188%, 43.579102%, 98.104858%)" offset="0.0820312"/><stop stop-opacity="1" stop-color="rgb(37.660217%, 43.563843%, 98.014832%)" offset="0.0859375"/><stop stop-opacity="1" stop-color="rgb(37.92572%, 43.548584%, 97.923279%)" offset="0.0898438"/><stop stop-opacity="1" stop-color="rgb(38.192749%, 43.533325%, 97.833252%)" offset="0.09375"/><stop stop-opacity="1" stop-color="rgb(38.458252%, 43.518066%, 97.743225%)" offset="0.0976562"/><stop stop-opacity="1" stop-color="rgb(38.725281%, 43.502808%, 97.653198%)" offset="0.101562"/><stop stop-opacity="1" stop-color="rgb(38.99231%, 43.487549%, 97.563171%)" offset="0.105469"/><stop stop-opacity="1" stop-color="rgb(39.259338%, 43.47229%, 97.473145%)" offset="0.109375"/><stop stop-opacity="1" stop-color="rgb(39.524841%, 43.457031%, 97.381592%)" offset="0.113281"/><stop stop-opacity="1" stop-color="rgb(39.79187%, 43.441772%, 97.291565%)" offset="0.117188"/><stop stop-opacity="1" stop-color="rgb(40.057373%, 43.426514%, 97.201538%)" offset="0.121094"/><stop stop-opacity="1" stop-color="rgb(40.324402%, 43.411255%, 97.111511%)" offset="0.125"/><stop stop-opacity="1" stop-color="rgb(40.589905%, 43.395996%, 97.021484%)" offset="0.128906"/><stop stop-opacity="1" stop-color="rgb(40.856934%, 43.380737%, 96.931458%)" offset="0.132812"/><stop stop-opacity="1" stop-color="rgb(41.122437%, 43.365479%, 96.841431%)" offset="0.136719"/><stop stop-opacity="1" stop-color="rgb(41.389465%, 43.35022%, 96.751404%)" offset="0.140625"/><stop stop-opacity="1" stop-color="rgb(41.654968%, 43.334961%, 96.659851%)" offset="0.144531"/><stop stop-opacity="1" stop-color="rgb(41.921997%, 43.319702%, 96.569824%)" offset="0.148438"/><stop stop-opacity="1" stop-color="rgb(42.189026%, 43.304443%, 96.479797%)" offset="0.152344"/><stop stop-opacity="1" stop-color="rgb(42.456055%, 43.289185%, 96.389771%)" offset="0.15625"/><stop stop-opacity="1" stop-color="rgb(42.721558%, 43.273926%, 96.299744%)" offset="0.160156"/><stop stop-opacity="1" stop-color="rgb(42.988586%, 43.258667%, 96.209717%)" offset="0.164062"/><stop stop-opacity="1" stop-color="rgb(43.254089%, 43.243408%, 96.11969%)" offset="0.167969"/><stop stop-opacity="1" stop-color="rgb(43.521118%, 43.229675%, 96.029663%)" offset="0.171875"/><stop stop-opacity="1" stop-color="rgb(43.786621%, 43.214417%, 95.93811%)" offset="0.175781"/><stop stop-opacity="1" stop-color="rgb(44.05365%, 43.199158%, 95.848083%)" offset="0.179688"/><stop stop-opacity="1" stop-color="rgb(44.319153%, 43.183899%, 95.758057%)" offset="0.183594"/><stop stop-opacity="1" stop-color="rgb(44.586182%, 43.16864%, 95.66803%)" offset="0.1875"/><stop stop-opacity="1" stop-color="rgb(44.85321%, 43.153381%, 95.578003%)" offset="0.191406"/><stop stop-opacity="1" stop-color="rgb(45.120239%, 43.138123%, 95.487976%)" offset="0.195312"/><stop stop-opacity="1" stop-color="rgb(45.385742%, 43.122864%, 95.396423%)" offset="0.199219"/><stop stop-opacity="1" stop-color="rgb(45.652771%, 43.107605%, 95.306396%)" offset="0.203125"/><stop stop-opacity="1" stop-color="rgb(45.918274%, 43.092346%, 95.21637%)" offset="0.207031"/><stop stop-opacity="1" stop-color="rgb(46.185303%, 43.077087%, 95.126343%)" offset="0.210938"/><stop stop-opacity="1" stop-color="rgb(46.450806%, 43.061829%, 95.036316%)" offset="0.214844"/><stop stop-opacity="1" stop-color="rgb(46.717834%, 43.04657%, 94.946289%)" offset="0.21875"/><stop stop-opacity="1" stop-color="rgb(46.983337%, 43.031311%, 94.856262%)" offset="0.222656"/><stop stop-opacity="1" stop-color="rgb(47.250366%, 43.016052%, 94.766235%)" offset="0.226562"/><stop stop-opacity="1" stop-color="rgb(47.515869%, 43.000793%, 94.674683%)" offset="0.230469"/><stop stop-opacity="1" stop-color="rgb(47.782898%, 42.985535%, 94.584656%)" offset="0.234375"/><stop stop-opacity="1" stop-color="rgb(48.049927%, 42.970276%, 94.494629%)" offset="0.238281"/><stop stop-opacity="1" stop-color="rgb(48.316956%, 42.955017%, 94.404602%)" offset="0.242188"/><stop stop-opacity="1" stop-color="rgb(48.582458%, 42.939758%, 94.314575%)" offset="0.246094"/><stop stop-opacity="1" stop-color="rgb(48.849487%, 42.9245%, 94.224548%)" offset="0.25"/><stop stop-opacity="1" stop-color="rgb(49.11499%, 42.909241%, 94.134521%)" offset="0.253906"/><stop stop-opacity="1" stop-color="rgb(49.382019%, 42.893982%, 94.044495%)" offset="0.257812"/><stop stop-opacity="1" stop-color="rgb(49.647522%, 42.878723%, 93.952942%)" offset="0.261719"/><stop stop-opacity="1" stop-color="rgb(49.914551%, 42.863464%, 93.862915%)" offset="0.265625"/><stop stop-opacity="1" stop-color="rgb(50.180054%, 42.848206%, 93.772888%)" offset="0.269531"/><stop stop-opacity="1" stop-color="rgb(50.447083%, 42.832947%, 93.682861%)" offset="0.273438"/><stop stop-opacity="1" stop-color="rgb(50.714111%, 42.817688%, 93.592834%)" offset="0.277344"/><stop stop-opacity="1" stop-color="rgb(50.98114%, 42.802429%, 93.502808%)" offset="0.28125"/><stop stop-opacity="1" stop-color="rgb(51.246643%, 42.78717%, 93.411255%)" offset="0.285156"/><stop stop-opacity="1" stop-color="rgb(51.513672%, 42.771912%, 93.321228%)" offset="0.289062"/><stop stop-opacity="1" stop-color="rgb(51.779175%, 42.756653%, 93.231201%)" offset="0.292969"/><stop stop-opacity="1" stop-color="rgb(52.046204%, 42.741394%, 93.141174%)" offset="0.296875"/><stop stop-opacity="1" stop-color="rgb(52.311707%, 42.726135%, 93.051147%)" offset="0.300781"/><stop stop-opacity="1" stop-color="rgb(52.578735%, 42.710876%, 92.961121%)" offset="0.304688"/><stop stop-opacity="1" stop-color="rgb(52.844238%, 42.695618%, 92.871094%)" offset="0.308594"/><stop stop-opacity="1" stop-color="rgb(53.111267%, 42.680359%, 92.781067%)" offset="0.3125"/><stop stop-opacity="1" stop-color="rgb(53.37677%, 42.6651%, 92.689514%)" offset="0.316406"/><stop stop-opacity="1" stop-color="rgb(53.643799%, 42.649841%, 92.599487%)" offset="0.320312"/><stop stop-opacity="1" stop-color="rgb(53.910828%, 42.634583%, 92.50946%)" offset="0.324219"/><stop stop-opacity="1" stop-color="rgb(54.177856%, 42.619324%, 92.419434%)" offset="0.328125"/><stop stop-opacity="1" stop-color="rgb(54.443359%, 42.604065%, 92.329407%)" offset="0.332031"/><stop stop-opacity="1" stop-color="rgb(54.710388%, 42.588806%, 92.23938%)" offset="0.335938"/><stop stop-opacity="1" stop-color="rgb(54.975891%, 42.573547%, 92.149353%)" offset="0.339844"/><stop stop-opacity="1" stop-color="rgb(55.24292%, 42.558289%, 92.059326%)" offset="0.34375"/><stop stop-opacity="1" stop-color="rgb(55.508423%, 42.54303%, 91.967773%)" offset="0.347656"/><stop stop-opacity="1" stop-color="rgb(55.775452%, 42.527771%, 91.877747%)" offset="0.351562"/><stop stop-opacity="1" stop-color="rgb(56.040955%, 42.512512%, 91.78772%)" offset="0.355469"/><stop stop-opacity="1" stop-color="rgb(56.307983%, 42.497253%, 91.697693%)" offset="0.359375"/><stop stop-opacity="1" stop-color="rgb(56.575012%, 42.481995%, 91.607666%)" offset="0.363281"/><stop stop-opacity="1" stop-color="rgb(56.842041%, 42.466736%, 91.517639%)" offset="0.367188"/><stop stop-opacity="1" stop-color="rgb(57.107544%, 42.451477%, 91.426086%)" offset="0.371094"/><stop stop-opacity="1" stop-color="rgb(57.374573%, 42.436218%, 91.33606%)" offset="0.375"/><stop stop-opacity="1" stop-color="rgb(57.640076%, 42.420959%, 91.246033%)" offset="0.378906"/><stop stop-opacity="1" stop-color="rgb(57.907104%, 42.405701%, 91.156006%)" offset="0.382812"/><stop stop-opacity="1" stop-color="rgb(58.172607%, 42.390442%, 91.065979%)" offset="0.386719"/><stop stop-opacity="1" stop-color="rgb(58.439636%, 42.375183%, 90.975952%)" offset="0.390625"/><stop stop-opacity="1" stop-color="rgb(58.705139%, 42.359924%, 90.885925%)" offset="0.394531"/><stop stop-opacity="1" stop-color="rgb(58.972168%, 42.344666%, 90.795898%)" offset="0.398438"/><stop stop-opacity="1" stop-color="rgb(59.239197%, 42.329407%, 90.704346%)" offset="0.402344"/><stop stop-opacity="1" stop-color="rgb(59.506226%, 42.314148%, 90.614319%)" offset="0.40625"/><stop stop-opacity="1" stop-color="rgb(59.771729%, 42.298889%, 90.524292%)" offset="0.410156"/><stop stop-opacity="1" stop-color="rgb(60.038757%, 42.285156%, 90.434265%)" offset="0.414062"/><stop stop-opacity="1" stop-color="rgb(60.30426%, 42.269897%, 90.344238%)" offset="0.417969"/><stop stop-opacity="1" stop-color="rgb(60.571289%, 42.254639%, 90.254211%)" offset="0.421875"/><stop stop-opacity="1" stop-color="rgb(60.836792%, 42.23938%, 90.164185%)" offset="0.425781"/><stop stop-opacity="1" stop-color="rgb(61.103821%, 42.224121%, 90.074158%)" offset="0.429688"/><stop stop-opacity="1" stop-color="rgb(61.369324%, 42.208862%, 89.982605%)" offset="0.433594"/><stop stop-opacity="1" stop-color="rgb(61.636353%, 42.193604%, 89.892578%)" offset="0.4375"/><stop stop-opacity="1" stop-color="rgb(61.901855%, 42.178345%, 89.802551%)" offset="0.441406"/><stop stop-opacity="1" stop-color="rgb(62.168884%, 42.163086%, 89.712524%)" offset="0.445312"/><stop stop-opacity="1" stop-color="rgb(62.435913%, 42.147827%, 89.622498%)" offset="0.449219"/><stop stop-opacity="1" stop-color="rgb(62.702942%, 42.132568%, 89.532471%)" offset="0.453125"/><stop stop-opacity="1" stop-color="rgb(62.968445%, 42.11731%, 89.440918%)" offset="0.457031"/><stop stop-opacity="1" stop-color="rgb(63.235474%, 42.102051%, 89.350891%)" offset="0.460938"/><stop stop-opacity="1" stop-color="rgb(63.500977%, 42.086792%, 89.260864%)" offset="0.464844"/><stop stop-opacity="1" stop-color="rgb(63.768005%, 42.071533%, 89.170837%)" offset="0.46875"/><stop stop-opacity="1" stop-color="rgb(64.033508%, 42.056274%, 89.080811%)" offset="0.472656"/><stop stop-opacity="1" stop-color="rgb(64.300537%, 42.041016%, 88.990784%)" offset="0.476562"/><stop stop-opacity="1" stop-color="rgb(64.56604%, 42.025757%, 88.900757%)" offset="0.480469"/><stop stop-opacity="1" stop-color="rgb(64.833069%, 42.010498%, 88.81073%)" offset="0.484375"/><stop stop-opacity="1" stop-color="rgb(65.100098%, 41.995239%, 88.719177%)" offset="0.488281"/><stop stop-opacity="1" stop-color="rgb(65.367126%, 41.97998%, 88.62915%)" offset="0.492188"/><stop stop-opacity="1" stop-color="rgb(65.632629%, 41.964722%, 88.539124%)" offset="0.496094"/><stop stop-opacity="1" stop-color="rgb(65.899658%, 41.949463%, 88.449097%)" offset="0.5"/><stop stop-opacity="1" stop-color="rgb(66.165161%, 41.934204%, 88.35907%)" offset="0.503906"/><stop stop-opacity="1" stop-color="rgb(66.43219%, 41.918945%, 88.269043%)" offset="0.507812"/><stop stop-opacity="1" stop-color="rgb(66.697693%, 41.903687%, 88.179016%)" offset="0.511719"/><stop stop-opacity="1" stop-color="rgb(66.964722%, 41.888428%, 88.088989%)" offset="0.515625"/><stop stop-opacity="1" stop-color="rgb(67.230225%, 41.873169%, 87.997437%)" offset="0.519531"/><stop stop-opacity="1" stop-color="rgb(67.497253%, 41.85791%, 87.90741%)" offset="0.523438"/><stop stop-opacity="1" stop-color="rgb(67.762756%, 41.842651%, 87.817383%)" offset="0.527344"/><stop stop-opacity="1" stop-color="rgb(68.029785%, 41.827393%, 87.727356%)" offset="0.53125"/><stop stop-opacity="1" stop-color="rgb(68.296814%, 41.812134%, 87.637329%)" offset="0.535156"/><stop stop-opacity="1" stop-color="rgb(68.563843%, 41.796875%, 87.547302%)" offset="0.539062"/><stop stop-opacity="1" stop-color="rgb(68.829346%, 41.781616%, 87.45575%)" offset="0.542969"/><stop stop-opacity="1" stop-color="rgb(69.096375%, 41.766357%, 87.365723%)" offset="0.546875"/><stop stop-opacity="1" stop-color="rgb(69.361877%, 41.751099%, 87.275696%)" offset="0.550781"/><stop stop-opacity="1" stop-color="rgb(69.628906%, 41.73584%, 87.185669%)" offset="0.554688"/><stop stop-opacity="1" stop-color="rgb(69.894409%, 41.720581%, 87.095642%)" offset="0.558594"/><stop stop-opacity="1" stop-color="rgb(70.161438%, 41.705322%, 87.005615%)" offset="0.5625"/><stop stop-opacity="1" stop-color="rgb(70.426941%, 41.690063%, 86.915588%)" offset="0.566406"/><stop stop-opacity="1" stop-color="rgb(70.69397%, 41.674805%, 86.825562%)" offset="0.570312"/><stop stop-opacity="1" stop-color="rgb(70.960999%, 41.659546%, 86.734009%)" offset="0.574219"/><stop stop-opacity="1" stop-color="rgb(71.228027%, 41.644287%, 86.643982%)" offset="0.578125"/><stop stop-opacity="1" stop-color="rgb(71.49353%, 41.629028%, 86.553955%)" offset="0.582031"/><stop stop-opacity="1" stop-color="rgb(71.760559%, 41.61377%, 86.463928%)" offset="0.585938"/><stop stop-opacity="1" stop-color="rgb(72.026062%, 41.598511%, 86.373901%)" offset="0.589844"/><stop stop-opacity="1" stop-color="rgb(72.293091%, 41.583252%, 86.283875%)" offset="0.59375"/><stop stop-opacity="1" stop-color="rgb(72.558594%, 41.567993%, 86.193848%)" offset="0.597656"/><stop stop-opacity="1" stop-color="rgb(72.825623%, 41.552734%, 86.103821%)" offset="0.601562"/><stop stop-opacity="1" stop-color="rgb(73.091125%, 41.537476%, 86.012268%)" offset="0.605469"/><stop stop-opacity="1" stop-color="rgb(73.358154%, 41.522217%, 85.922241%)" offset="0.609375"/><stop stop-opacity="1" stop-color="rgb(73.623657%, 41.506958%, 85.832214%)" offset="0.613281"/><stop stop-opacity="1" stop-color="rgb(73.890686%, 41.491699%, 85.742188%)" offset="0.617188"/><stop stop-opacity="1" stop-color="rgb(74.157715%, 41.47644%, 85.652161%)" offset="0.621094"/><stop stop-opacity="1" stop-color="rgb(74.424744%, 41.461182%, 85.562134%)" offset="0.625"/><stop stop-opacity="1" stop-color="rgb(74.690247%, 41.445923%, 85.470581%)" offset="0.628906"/><stop stop-opacity="1" stop-color="rgb(74.957275%, 41.430664%, 85.380554%)" offset="0.632812"/><stop stop-opacity="1" stop-color="rgb(75.222778%, 41.415405%, 85.290527%)" offset="0.636719"/><stop stop-opacity="1" stop-color="rgb(75.489807%, 41.400146%, 85.2005%)" offset="0.640625"/><stop stop-opacity="1" stop-color="rgb(75.75531%, 41.384888%, 85.110474%)" offset="0.644531"/><stop stop-opacity="1" stop-color="rgb(76.022339%, 41.369629%, 85.020447%)" offset="0.648438"/><stop stop-opacity="1" stop-color="rgb(76.287842%, 41.35437%, 84.93042%)" offset="0.652344"/><stop stop-opacity="1" stop-color="rgb(76.554871%, 41.339111%, 84.840393%)" offset="0.65625"/><stop stop-opacity="1" stop-color="rgb(76.821899%, 41.323853%, 84.74884%)" offset="0.660156"/><stop stop-opacity="1" stop-color="rgb(77.088928%, 41.31012%, 84.658813%)" offset="0.664062"/><stop stop-opacity="1" stop-color="rgb(77.354431%, 41.294861%, 84.568787%)" offset="0.667969"/><stop stop-opacity="1" stop-color="rgb(77.62146%, 41.279602%, 84.47876%)" offset="0.671875"/><stop stop-opacity="1" stop-color="rgb(77.886963%, 41.264343%, 84.388733%)" offset="0.675781"/><stop stop-opacity="1" stop-color="rgb(78.153992%, 41.249084%, 84.298706%)" offset="0.679688"/><stop stop-opacity="1" stop-color="rgb(78.419495%, 41.233826%, 84.208679%)" offset="0.683594"/><stop stop-opacity="1" stop-color="rgb(78.686523%, 41.218567%, 84.118652%)" offset="0.6875"/><stop stop-opacity="1" stop-color="rgb(78.952026%, 41.203308%, 84.0271%)" offset="0.691406"/><stop stop-opacity="1" stop-color="rgb(79.219055%, 41.188049%, 83.937073%)" offset="0.695312"/><stop stop-opacity="1" stop-color="rgb(79.486084%, 41.172791%, 83.847046%)" offset="0.699219"/><stop stop-opacity="1" stop-color="rgb(79.753113%, 41.157532%, 83.757019%)" offset="0.703125"/><stop stop-opacity="1" stop-color="rgb(80.018616%, 41.142273%, 83.666992%)" offset="0.707031"/><stop stop-opacity="1" stop-color="rgb(80.285645%, 41.127014%, 83.576965%)" offset="0.710938"/><stop stop-opacity="1" stop-color="rgb(80.551147%, 41.111755%, 83.485413%)" offset="0.714844"/><stop stop-opacity="1" stop-color="rgb(80.818176%, 41.096497%, 83.395386%)" offset="0.71875"/><stop stop-opacity="1" stop-color="rgb(81.083679%, 41.081238%, 83.305359%)" offset="0.722656"/><stop stop-opacity="1" stop-color="rgb(81.350708%, 41.065979%, 83.215332%)" offset="0.726562"/><stop stop-opacity="1" stop-color="rgb(81.616211%, 41.05072%, 83.125305%)" offset="0.730469"/><stop stop-opacity="1" stop-color="rgb(81.88324%, 41.035461%, 83.035278%)" offset="0.734375"/><stop stop-opacity="1" stop-color="rgb(82.148743%, 41.020203%, 82.945251%)" offset="0.738281"/><stop stop-opacity="1" stop-color="rgb(82.415771%, 41.004944%, 82.855225%)" offset="0.742188"/><stop stop-opacity="1" stop-color="rgb(82.6828%, 40.989685%, 82.763672%)" offset="0.746094"/><stop stop-opacity="1" stop-color="rgb(82.949829%, 40.974426%, 82.673645%)" offset="0.75"/><stop stop-opacity="1" stop-color="rgb(83.215332%, 40.959167%, 82.583618%)" offset="0.753906"/><stop stop-opacity="1" stop-color="rgb(83.482361%, 40.943909%, 82.493591%)" offset="0.757812"/><stop stop-opacity="1" stop-color="rgb(83.747864%, 40.92865%, 82.403564%)" offset="0.761719"/><stop stop-opacity="1" stop-color="rgb(84.014893%, 40.913391%, 82.313538%)" offset="0.765625"/><stop stop-opacity="1" stop-color="rgb(84.280396%, 40.898132%, 82.223511%)" offset="0.769531"/><stop stop-opacity="1" stop-color="rgb(84.547424%, 40.882874%, 82.133484%)" offset="0.773438"/><stop stop-opacity="1" stop-color="rgb(84.812927%, 40.867615%, 82.041931%)" offset="0.777344"/><stop stop-opacity="1" stop-color="rgb(85.079956%, 40.852356%, 81.951904%)" offset="0.78125"/><stop stop-opacity="1" stop-color="rgb(85.346985%, 40.837097%, 81.861877%)" offset="0.785156"/><stop stop-opacity="1" stop-color="rgb(85.614014%, 40.821838%, 81.771851%)" offset="0.789062"/><stop stop-opacity="1" stop-color="rgb(85.879517%, 40.80658%, 81.681824%)" offset="0.792969"/><stop stop-opacity="1" stop-color="rgb(86.146545%, 40.791321%, 81.591797%)" offset="0.796875"/><stop stop-opacity="1" stop-color="rgb(86.412048%, 40.776062%, 81.500244%)" offset="0.800781"/><stop stop-opacity="1" stop-color="rgb(86.679077%, 40.760803%, 81.410217%)" offset="0.804688"/><stop stop-opacity="1" stop-color="rgb(86.94458%, 40.745544%, 81.32019%)" offset="0.808594"/><stop stop-opacity="1" stop-color="rgb(87.211609%, 40.730286%, 81.230164%)" offset="0.8125"/><stop stop-opacity="1" stop-color="rgb(87.477112%, 40.715027%, 81.140137%)" offset="0.816406"/><stop stop-opacity="1" stop-color="rgb(87.744141%, 40.699768%, 81.05011%)" offset="0.820312"/><stop stop-opacity="1" stop-color="rgb(88.009644%, 40.684509%, 80.960083%)" offset="0.824219"/><stop stop-opacity="1" stop-color="rgb(88.276672%, 40.66925%, 80.870056%)" offset="0.828125"/><stop stop-opacity="1" stop-color="rgb(88.543701%, 40.653992%, 80.778503%)" offset="0.832031"/><stop stop-opacity="1" stop-color="rgb(88.81073%, 40.638733%, 80.688477%)" offset="0.835938"/><stop stop-opacity="1" stop-color="rgb(89.076233%, 40.623474%, 80.59845%)" offset="0.839844"/><stop stop-opacity="1" stop-color="rgb(89.343262%, 40.608215%, 80.508423%)" offset="0.84375"/><stop stop-opacity="1" stop-color="rgb(89.608765%, 40.592957%, 80.418396%)" offset="0.847656"/><stop stop-opacity="1" stop-color="rgb(89.875793%, 40.577698%, 80.328369%)" offset="0.851562"/><stop stop-opacity="1" stop-color="rgb(90.141296%, 40.562439%, 80.238342%)" offset="0.855469"/><stop stop-opacity="1" stop-color="rgb(90.408325%, 40.54718%, 80.148315%)" offset="0.859375"/><stop stop-opacity="1" stop-color="rgb(90.673828%, 40.531921%, 80.056763%)" offset="0.863281"/><stop stop-opacity="1" stop-color="rgb(90.940857%, 40.516663%, 79.966736%)" offset="0.867188"/><stop stop-opacity="1" stop-color="rgb(91.207886%, 40.501404%, 79.876709%)" offset="0.871094"/><stop stop-opacity="1" stop-color="rgb(91.474915%, 40.486145%, 79.786682%)" offset="0.875"/><stop stop-opacity="1" stop-color="rgb(91.740417%, 40.470886%, 79.696655%)" offset="0.878906"/><stop stop-opacity="1" stop-color="rgb(92.007446%, 40.455627%, 79.606628%)" offset="0.882812"/><stop stop-opacity="1" stop-color="rgb(92.272949%, 40.440369%, 79.515076%)" offset="0.886719"/><stop stop-opacity="1" stop-color="rgb(92.539978%, 40.42511%, 79.425049%)" offset="0.890625"/><stop stop-opacity="1" stop-color="rgb(92.805481%, 40.409851%, 79.335022%)" offset="0.894531"/><stop stop-opacity="1" stop-color="rgb(93.07251%, 40.394592%, 79.244995%)" offset="0.898438"/><stop stop-opacity="1" stop-color="rgb(93.338013%, 40.379333%, 79.154968%)" offset="0.902344"/><stop stop-opacity="1" stop-color="rgb(93.605042%, 40.365601%, 79.064941%)" offset="0.90625"/><stop stop-opacity="1" stop-color="rgb(93.870544%, 40.350342%, 78.974915%)" offset="0.910156"/><stop stop-opacity="1" stop-color="rgb(94.137573%, 40.335083%, 78.884888%)" offset="0.914062"/><stop stop-opacity="1" stop-color="rgb(94.404602%, 40.319824%, 78.793335%)" offset="0.917969"/><stop stop-opacity="1" stop-color="rgb(94.671631%, 40.304565%, 78.703308%)" offset="0.921875"/><stop stop-opacity="1" stop-color="rgb(94.937134%, 40.289307%, 78.613281%)" offset="0.925781"/><stop stop-opacity="1" stop-color="rgb(95.204163%, 40.274048%, 78.523254%)" offset="0.929688"/><stop stop-opacity="1" stop-color="rgb(95.469666%, 40.258789%, 78.433228%)" offset="0.933594"/><stop stop-opacity="1" stop-color="rgb(95.736694%, 40.24353%, 78.343201%)" offset="0.9375"/><stop stop-opacity="1" stop-color="rgb(96.002197%, 40.228271%, 78.253174%)" offset="0.941406"/><stop stop-opacity="1" stop-color="rgb(96.269226%, 40.213013%, 78.163147%)" offset="0.945312"/><stop stop-opacity="1" stop-color="rgb(96.534729%, 40.197754%, 78.071594%)" offset="0.949219"/><stop stop-opacity="1" stop-color="rgb(96.801758%, 40.182495%, 77.981567%)" offset="0.953125"/><stop stop-opacity="1" stop-color="rgb(97.068787%, 40.167236%, 77.891541%)" offset="0.957031"/><stop stop-opacity="1" stop-color="rgb(97.335815%, 40.151978%, 77.801514%)" offset="0.960938"/><stop stop-opacity="1" stop-color="rgb(97.601318%, 40.136719%, 77.711487%)" offset="0.964844"/><stop stop-opacity="1" stop-color="rgb(97.868347%, 40.12146%, 77.62146%)" offset="0.96875"/><stop stop-opacity="1" stop-color="rgb(98.13385%, 40.106201%, 77.531433%)" offset="0.972656"/><stop stop-opacity="1" stop-color="rgb(98.400879%, 40.090942%, 77.441406%)" offset="0.976562"/><stop stop-opacity="1" stop-color="rgb(98.666382%, 40.075684%, 77.349854%)" offset="0.980469"/><stop stop-opacity="1" stop-color="rgb(98.933411%, 40.060425%, 77.259827%)" offset="0.984375"/><stop stop-opacity="1" stop-color="rgb(99.198914%, 40.045166%, 77.1698%)" offset="0.988281"/><stop stop-opacity="1" stop-color="rgb(99.465942%, 40.029907%, 77.079773%)" offset="0.992188"/><stop stop-opacity="1" stop-color="rgb(99.731445%, 40.014648%, 76.989746%)" offset="0.996094"/><stop stop-opacity="1" stop-color="rgb(99.998474%, 39.99939%, 76.899719%)" offset="1"/></linearGradient><clipPath id="1c8b08c782"><path d="M 1481 421 L 3823 421 L 3823 2004 L 1481 2004 Z M 1481 421 " clip-rule="nonzero"/></clipPath><clipPath id="971b146110"><path d="M 1186.070312 1143.035156 L 3372.472656 88.191406 L 3997.953125 1384.636719 L 1811.550781 2439.484375 Z M 1186.070312 1143.035156 " clip-rule="nonzero"/></clipPath><clipPath id="d5ed274dde"><path d="M 1186.070312 1143.035156 L 3372.472656 88.191406 L 3997.953125 1384.636719 L 1811.550781 2439.484375 Z M 1186.070312 1143.035156 " clip-rule="nonzero"/></clipPath><clipPath id="764ca516b4"><path d="M 1 0 L 1581 0 L 1581 1222 L 1 1222 Z M 1 0 " clip-rule="nonzero"/></clipPath><clipPath id="a0557aa716"><path d="M 3444 1341 L 5183 1341 L 5183 2591 L 3444 2591 Z M 3444 1341 " clip-rule="nonzero"/></clipPath><clipPath id="76b70036ce"><path d="M 2344.367188 259.101562 L 2839.925781 259.101562 L 2839.925781 395.546875 L 2344.367188 395.546875 Z M 2344.367188 259.101562 " clip-rule="nonzero"/></clipPath><clipPath id="1bd22b3da9"><path d="M 2412.523438 259.101562 L 2771.464844 259.101562 C 2789.539062 259.101562 2806.875 266.28125 2819.65625 279.0625 C 2832.4375 291.84375 2839.617188 309.179688 2839.617188 327.253906 C 2839.617188 345.328125 2832.4375 362.664062 2819.65625 375.445312 C 2806.875 388.226562 2789.539062 395.40625 2771.464844 395.40625 L 2412.523438 395.40625 C 2394.449219 395.40625 2377.113281 388.226562 2364.332031 375.445312 C 2351.550781 362.664062 2344.371094 345.328125 2344.371094 327.253906 C 2344.371094 309.179688 2351.550781 291.84375 2364.332031 279.0625 C 2377.113281 266.28125 2394.449219 259.101562 2412.523438 259.101562 Z M 2412.523438 259.101562 " clip-rule="nonzero"/></clipPath><clipPath id="117a954f2f"><path d="M 2089.398438 2195.589844 L 3094.761719 2195.589844 L 3094.761719 2332 L 2089.398438 2332 Z M 2089.398438 2195.589844 " clip-rule="nonzero"/></clipPath><clipPath id="4983305534"><path d="M 2157.570312 2195.589844 L 3026.429688 2195.589844 C 3044.503906 2195.589844 3061.839844 2202.769531 3074.621094 2215.550781 C 3087.402344 2228.332031 3094.582031 2245.667969 3094.582031 2263.742188 C 3094.582031 2281.816406 3087.402344 2299.152344 3074.621094 2311.933594 C 3061.839844 2324.714844 3044.503906 2331.894531 3026.429688 2331.894531 L 2157.570312 2331.894531 C 2139.496094 2331.894531 2122.160156 2324.714844 2109.378906 2311.933594 C 2096.597656 2299.152344 2089.417969 2281.816406 2089.417969 2263.742188 C 2089.417969 2245.667969 2096.597656 2228.332031 2109.378906 2215.550781 C 2122.160156 2202.769531 2139.496094 2195.589844 2157.570312 2195.589844 Z M 2157.570312 2195.589844 " clip-rule="nonzero"/></clipPath><clipPath id="0d910d4582"><path d="M 2179.144531 2234.058594 L 2238.371094 2234.058594 L 2238.371094 2293.285156 L 2179.144531 2293.285156 Z M 2179.144531 2234.058594 " clip-rule="nonzero"/></clipPath><clipPath id="34a6526848"><path d="M 2208.238281 2234.390625 C 2192.019531 2234.710938 2179.140625 2248.074219 2179.300781 2264.300781 C 2179.617188 2280.527344 2192.972656 2293.414062 2209.191406 2293.253906 C 2225.410156 2292.9375 2238.292969 2279.574219 2238.132812 2263.347656 C 2237.8125 2247.117188 2224.457031 2234.074219 2208.238281 2234.390625 Z M 2200.128906 2239.324219 C 2198.378906 2241.710938 2196.789062 2244.734375 2195.675781 2248.234375 L 2188.046875 2248.234375 C 2191.066406 2244.253906 2195.199219 2241.074219 2200.128906 2239.324219 Z M 2185.820312 2251.734375 L 2194.566406 2251.734375 C 2193.769531 2254.914062 2193.453125 2258.414062 2193.292969 2262.074219 L 2182.957031 2262.074219 C 2183.117188 2258.414062 2184.230469 2254.914062 2185.820312 2251.734375 Z M 2182.957031 2265.574219 L 2193.292969 2265.574219 C 2193.453125 2269.234375 2193.769531 2272.734375 2194.566406 2275.914062 L 2185.820312 2275.914062 C 2184.230469 2272.734375 2183.117188 2269.234375 2182.957031 2265.574219 Z M 2188.046875 2279.253906 L 2195.675781 2279.253906 C 2196.789062 2282.753906 2198.378906 2285.9375 2200.128906 2288.164062 C 2195.199219 2286.414062 2191.066406 2283.390625 2188.046875 2279.253906 Z M 2207.125 2289.4375 C 2203.308594 2288.164062 2200.605469 2283.074219 2199.335938 2279.253906 L 2207.125 2279.253906 Z M 2207.125 2275.914062 L 2198.222656 2275.914062 C 2197.425781 2272.734375 2196.949219 2269.234375 2196.789062 2265.574219 L 2207.125 2265.574219 Z M 2207.125 2262.074219 L 2196.789062 2262.074219 C 2196.949219 2258.414062 2197.425781 2254.914062 2198.222656 2251.734375 L 2207.125 2251.734375 Z M 2207.125 2248.234375 L 2199.335938 2248.234375 C 2200.765625 2244.414062 2203.308594 2239.324219 2207.125 2238.050781 Z M 2234.632812 2262.074219 L 2224.296875 2262.074219 C 2224.140625 2258.414062 2223.820312 2254.914062 2223.027344 2251.734375 L 2231.773438 2251.734375 C 2233.363281 2254.914062 2234.476562 2258.414062 2234.632812 2262.074219 Z M 2229.546875 2248.234375 L 2221.914062 2248.234375 C 2220.800781 2244.734375 2219.210938 2241.550781 2217.460938 2239.324219 C 2222.390625 2241.074219 2226.523438 2244.253906 2229.546875 2248.234375 Z M 2210.464844 2238.210938 C 2214.28125 2239.484375 2216.984375 2244.574219 2218.257812 2248.390625 L 2210.464844 2248.390625 Z M 2210.464844 2251.734375 L 2219.371094 2251.734375 C 2220.164062 2254.914062 2220.640625 2258.414062 2220.800781 2262.074219 L 2210.464844 2262.074219 Z M 2210.464844 2265.574219 L 2220.800781 2265.574219 C 2220.640625 2269.234375 2220.164062 2272.734375 2219.371094 2275.914062 L 2210.464844 2275.914062 Z M 2210.464844 2289.4375 L 2210.464844 2279.253906 L 2218.257812 2279.253906 C 2216.984375 2283.074219 2214.441406 2288.164062 2210.464844 2289.4375 Z M 2217.460938 2288.164062 C 2219.210938 2285.777344 2220.800781 2282.753906 2221.914062 2279.253906 L 2229.546875 2279.253906 C 2226.523438 2283.390625 2222.390625 2286.414062 2217.460938 2288.164062 Z M 2231.773438 2275.914062 L 2223.027344 2275.914062 C 2223.820312 2272.734375 2224.140625 2269.234375 2224.296875 2265.574219 L 2234.632812 2265.574219 C 2234.476562 2269.234375 2233.363281 2272.734375 2231.773438 2275.914062 Z M 2231.773438 2275.914062 " clip-rule="evenodd"/></clipPath><clipPath id="faed82d93b"><path d="M 2945.703125 2234.058594 L 3004.929688 2234.058594 L 3004.929688 2293.285156 L 2945.703125 2293.285156 Z M 2945.703125 2234.058594 " clip-rule="nonzero"/></clipPath><clipPath id="d2c51c5915"><path d="M 2974.796875 2234.390625 C 2958.578125 2234.710938 2945.699219 2248.074219 2945.859375 2264.300781 C 2946.175781 2280.527344 2959.53125 2293.414062 2975.75 2293.253906 C 2991.96875 2292.9375 3004.851562 2279.574219 3004.691406 2263.347656 C 3004.371094 2247.117188 2991.015625 2234.074219 2974.796875 2234.390625 Z M 2966.6875 2239.324219 C 2964.9375 2241.710938 2963.347656 2244.734375 2962.234375 2248.234375 L 2954.605469 2248.234375 C 2957.625 2244.253906 2961.757812 2241.074219 2966.6875 2239.324219 Z M 2952.378906 2251.734375 L 2961.125 2251.734375 C 2960.328125 2254.914062 2960.011719 2258.414062 2959.851562 2262.074219 L 2949.515625 2262.074219 C 2949.675781 2258.414062 2950.789062 2254.914062 2952.378906 2251.734375 Z M 2949.515625 2265.574219 L 2959.851562 2265.574219 C 2960.011719 2269.234375 2960.328125 2272.734375 2961.125 2275.914062 L 2952.378906 2275.914062 C 2950.789062 2272.734375 2949.675781 2269.234375 2949.515625 2265.574219 Z M 2954.605469 2279.253906 L 2962.234375 2279.253906 C 2963.347656 2282.753906 2964.9375 2285.9375 2966.6875 2288.164062 C 2961.757812 2286.414062 2957.625 2283.390625 2954.605469 2279.253906 Z M 2973.683594 2289.4375 C 2969.867188 2288.164062 2967.164062 2283.074219 2965.894531 2279.253906 L 2973.683594 2279.253906 Z M 2973.683594 2275.914062 L 2964.78125 2275.914062 C 2963.984375 2272.734375 2963.507812 2269.234375 2963.347656 2265.574219 L 2973.683594 2265.574219 Z M 2973.683594 2262.074219 L 2963.347656 2262.074219 C 2963.507812 2258.414062 2963.984375 2254.914062 2964.78125 2251.734375 L 2973.683594 2251.734375 Z M 2973.683594 2248.234375 L 2965.894531 2248.234375 C 2967.324219 2244.414062 2969.867188 2239.324219 2973.683594 2238.050781 Z M 3001.191406 2262.074219 L 2990.855469 2262.074219 C 2990.699219 2258.414062 2990.378906 2254.914062 2989.585938 2251.734375 L 2998.332031 2251.734375 C 2999.921875 2254.914062 3001.035156 2258.414062 3001.191406 2262.074219 Z M 2996.105469 2248.234375 L 2988.472656 2248.234375 C 2987.359375 2244.734375 2985.769531 2241.550781 2984.019531 2239.324219 C 2988.949219 2241.074219 2993.082031 2244.253906 2996.105469 2248.234375 Z M 2977.023438 2238.210938 C 2980.839844 2239.484375 2983.542969 2244.574219 2984.816406 2248.390625 L 2977.023438 2248.390625 Z M 2977.023438 2251.734375 L 2985.929688 2251.734375 C 2986.722656 2254.914062 2987.199219 2258.414062 2987.359375 2262.074219 L 2977.023438 2262.074219 Z M 2977.023438 2265.574219 L 2987.359375 2265.574219 C 2987.199219 2269.234375 2986.722656 2272.734375 2985.929688 2275.914062 L 2977.023438 2275.914062 Z M 2977.023438 2289.4375 L 2977.023438 2279.253906 L 2984.816406 2279.253906 C 2983.542969 2283.074219 2981 2288.164062 2977.023438 2289.4375 Z M 2984.019531 2288.164062 C 2985.769531 2285.777344 2987.359375 2282.753906 2988.472656 2279.253906 L 2996.105469 2279.253906 C 2993.082031 2283.390625 2988.949219 2286.414062 2984.019531 2288.164062 Z M 2998.332031 2275.914062 L 2989.585938 2275.914062 C 2990.378906 2272.734375 2990.699219 2269.234375 2990.855469 2265.574219 L 3001.191406 2265.574219 C 3001.035156 2269.234375 2999.921875 2272.734375 2998.332031 2275.914062 Z M 2998.332031 2275.914062 " clip-rule="evenodd"/></clipPath><clipPath id="201df3141e"><path d="M 260.101562 1383.082031 L 573.480469 1383.082031 L 573.480469 1696.460938 L 260.101562 1696.460938 Z M 260.101562 1383.082031 " clip-rule="nonzero"/></clipPath><clipPath id="c2a3a82405"><path d="M 1872.726562 231.59375 L 2054.90625 231.59375 L 2054.90625 414.523438 L 1872.726562 414.523438 Z M 1872.726562 231.59375 " clip-rule="nonzero"/></clipPath><clipPath id="082bf2381f"><path d="M 4741.488281 815.542969 L 4923.667969 815.542969 L 4923.667969 998.472656 L 4741.488281 998.472656 Z M 4741.488281 815.542969 " clip-rule="nonzero"/></clipPath><clipPath id="a7fc3d9aa4"><path d="M 2513.269531 1867.578125 L 2670.710938 1867.578125 L 2670.710938 2025.019531 L 2513.269531 2025.019531 Z M 2513.269531 1867.578125 " clip-rule="nonzero"/></clipPath><clipPath id="1635221a5c"><path d="M 2591.996094 1867.578125 C 2548.515625 1867.578125 2513.269531 1902.824219 2513.269531 1946.304688 C 2513.269531 1989.785156 2548.515625 2025.03125 2591.996094 2025.03125 C 2635.476562 2025.03125 2670.722656 1989.785156 2670.722656 1946.304688 C 2670.722656 1902.824219 2635.476562 1867.578125 2591.996094 1867.578125 Z M 2591.996094 1867.578125 " clip-rule="nonzero"/></clipPath><clipPath id="046b3c5d71"><path d="M 2582.003906 1918 L 2615.742188 1918 L 2615.742188 1974.742188 L 2582.003906 1974.742188 Z M 2582.003906 1918 " clip-rule="nonzero"/></clipPath></defs><path fill="url(#3502a01e89)" d="M 1 0 L 1 2591 L 5183 2591 L 5183 0 Z M 1 0 " fill-rule="nonzero"/><g clip-path="url(#1c8b08c782)"><g clip-path="url(#971b146110)"><g clip-path="url(#d5ed274dde)"><path fill="#eab33d" d="M 3745.140625 864.363281 C 3787.695312 962.703125 3826.753906 1070.359375 3822.035156 1188.039062 C 3817.871094 1291.734375 3789.191406 1387.832031 3718.308594 1466.46875 C 3633.082031 1561.023438 3524.148438 1584.417969 3402.929688 1563.46875 C 3324.601562 1549.9375 3256.078125 1512.484375 3189.0625 1471.929688 C 3135.121094 1439.292969 3081.617188 1405.828125 3026.585938 1375.128906 C 3001.386719 1361.074219 2973.722656 1350.011719 2945.832031 1342.546875 C 2900.460938 1330.40625 2878.121094 1346.199219 2868.152344 1392.074219 C 2859.25 1433.074219 2865.746094 1472.839844 2877.078125 1512.429688 C 2891.789062 1563.824219 2908.257812 1614.894531 2919.332031 1667.085938 C 2929.234375 1713.800781 2922.570312 1760.292969 2899.8125 1803.445312 C 2862.492188 1874.210938 2796.949219 1905.273438 2709.816406 1893.734375 C 2623.34375 1882.269531 2552 1839.121094 2484.207031 1787.71875 C 2432.964844 1748.859375 2382.09375 1709.234375 2328.554688 1673.726562 C 2274.039062 1637.566406 2223.335938 1639.035156 2177.472656 1718.222656 C 2164.121094 1741.28125 2157.550781 1768.550781 2149.652344 1794.4375 C 2132 1852.3125 2109.8125 1907.765625 2060.542969 1946.378906 C 1994.589844 1998.074219 1918.878906 2013.019531 1837.683594 1996.730469 C 1650.804688 1959.230469 1499.054688 1788.484375 1482.347656 1598.785156 C 1472.527344 1487.246094 1530.867188 1408.042969 1642.855469 1380.886719 C 1717.382812 1362.8125 1793.503906 1364.753906 1869.3125 1362.835938 C 1899.125 1362.078125 1928.949219 1361.996094 1958.742188 1360.902344 C 1996.878906 1359.507812 2019.964844 1343.539062 2026.738281 1305.554688 C 2031.207031 1280.488281 2030.066406 1252.691406 2024.160156 1227.839844 C 2009.613281 1166.640625 1986.074219 1107.324219 1974.746094 1045.671875 C 1943.996094 878.285156 2056.289062 723.207031 2224.34375 694.578125 C 2264.894531 687.675781 2304.019531 692.898438 2342.585938 705.59375 C 2407.117188 726.820312 2464.464844 761.210938 2519.046875 800.953125 C 2574.421875 841.265625 2629.945312 881.40625 2694.097656 907.433594 C 2733.128906 923.265625 2772.261719 928.167969 2813.085938 914.222656 C 2869.800781 894.847656 2892.066406 848.703125 2904.242188 796.050781 C 2914.621094 751.179688 2920.300781 705.234375 2930.300781 660.253906 C 2947.152344 584.402344 2983.433594 519.308594 3046.25 471.988281 C 3122.507812 414.546875 3208.296875 411.105469 3296.425781 435.535156 C 3408.902344 466.714844 3500.3125 532.273438 3578.148438 617.34375 C 3643.980469 689.292969 3696.871094 770.414062 3745.140625 864.363281 " fill-opacity="1" fill-rule="nonzero"/></g></g></g><g clip-path="url(#764ca516b4)"><path fill="#eab33d" d="M 1275.183594 -51.753906 C 1265.929688 -83.457031 1259.582031 -117.0625 1246.332031 -146.507812 C 1237.222656 -166.75 1220.734375 -184.105469 1203.660156 -197.65625 C 1170.984375 -223.597656 1129.117188 -217.210938 1096.9375 -181.566406 C 1080.441406 -163.292969 1065.585938 -141.523438 1055.425781 -119.191406 C 1023.050781 -48.007812 994.550781 24.703125 962.121094 95.871094 C 769.238281 519.207031 459.695312 454.863281 620.242188 203.785156 C 668.945312 119.277344 712.757812 32.910156 733.613281 -61.394531 C 751.976562 -144.421875 750.066406 -223.402344 706.378906 -289.246094 C 654.769531 -367.027344 575.800781 -392.410156 482.703125 -386.007812 C 392.425781 -379.789062 309.476562 -338.785156 227.914062 -291.289062 C 64.003906 -195.832031 -53.527344 -53.578125 -145.367188 114.964844 C -202.132812 219.171875 -245.855469 327.636719 -277.148438 440.339844 C -336.238281 653.199219 -300.136719 835.355469 -182.207031 990.394531 C -66.800781 1142.132812 94.644531 1209.113281 285.121094 1220.292969 C 507.136719 1233.320312 719.203125 1167.277344 923.859375 1043.109375 C 1093.179688 940.382812 1242.113281 811.222656 1361.867188 645.371094 C 1481.566406 479.585938 1559.679688 299.621094 1577.347656 100.953125 C 1583.476562 31.984375 1582.558594 -35.914062 1560.929688 -98.472656 C 1539.761719 -159.667969 1497.492188 -195.035156 1433.703125 -201.609375 C 1399.128906 -205.171875 1368.105469 -192.523438 1343.808594 -161.964844 C 1328.625 -142.871094 1315.898438 -121.601562 1302.949219 -100.765625 C 1292.574219 -84.078125 1283.527344 -66.585938 1275.183594 -51.753906 " fill-opacity="1" fill-rule="nonzero"/></g><g clip-path="url(#a0557aa716)"><path fill="#eab33d" d="M 3764.652344 2677.964844 C 3774.363281 2711.238281 3781.027344 2746.503906 3794.9375 2777.410156 C 3804.496094 2798.65625 3821.800781 2816.871094 3839.71875 2831.09375 C 3874.015625 2858.320312 3917.953125 2851.613281 3951.730469 2814.203125 C 3969.042969 2795.027344 3984.632812 2772.179688 3995.296875 2748.738281 C 4029.273438 2674.03125 4059.1875 2597.71875 4093.222656 2523.027344 C 4295.660156 2078.722656 4620.53125 2146.253906 4452.035156 2409.765625 C 4400.917969 2498.460938 4354.933594 2589.109375 4333.046875 2688.082031 C 4313.773438 2775.21875 4315.777344 2858.113281 4361.628906 2927.214844 C 4415.796875 3008.851562 4498.671875 3035.492188 4596.382812 3028.769531 C 4691.128906 3022.246094 4778.1875 2979.210938 4863.789062 2929.363281 C 5035.816406 2829.175781 5159.171875 2679.875 5255.558594 2502.988281 C 5315.136719 2393.621094 5361.023438 2279.785156 5393.863281 2161.496094 C 5455.882812 1938.09375 5417.992188 1746.917969 5294.222656 1584.203125 C 5173.101562 1424.949219 5003.660156 1354.648438 4803.75 1342.917969 C 4570.742188 1329.242188 4348.167969 1398.5625 4133.375 1528.875 C 3955.671875 1636.6875 3799.363281 1772.25 3673.679688 1946.3125 C 3548.050781 2120.308594 3466.070312 2309.1875 3447.527344 2517.695312 C 3441.09375 2590.078125 3442.054688 2661.339844 3464.757812 2726.996094 C 3486.972656 2791.222656 3531.335938 2828.34375 3598.28125 2835.238281 C 3634.570312 2838.980469 3667.128906 2825.703125 3692.632812 2793.632812 C 3708.566406 2773.59375 3721.921875 2751.269531 3735.515625 2729.402344 C 3746.402344 2711.886719 3755.898438 2693.527344 3764.652344 2677.964844 " fill-opacity="1" fill-rule="nonzero"/></g><g fill="#ffffff" fill-opacity="1"><g transform="translate(1113.282046, 1377.998408)"><g><path d="M 170.335938 4.5 C 254.300781 4.5 313.679688 -29.6875 323.574219 -83.667969 L 235.109375 -98.0625 C 230.910156 -75.570312 206.921875 -61.476562 173.035156 -61.476562 C 131.347656 -61.476562 104.960938 -79.46875 104.960938 -107.957031 C 104.960938 -136.449219 128.050781 -154.441406 164.035156 -154.441406 C 189.527344 -154.441406 209.617188 -143.042969 215.917969 -125.050781 L 303.183594 -141.546875 C 289.386719 -189.828125 234.210938 -220.414062 161.335938 -220.414062 C 68.074219 -220.414062 8.996094 -176.632812 8.996094 -107.957031 C 8.996094 -36.285156 71.671875 4.5 170.335938 4.5 Z M 170.335938 4.5 "/></g></g></g><g fill="#ffffff" fill-opacity="1"><g transform="translate(1439.855469, 1377.998408)"><g><path d="M 170.933594 7.496094 C 268.695312 7.496094 332.871094 -38.085938 332.871094 -107.957031 C 332.871094 -177.832031 268.695312 -223.414062 170.933594 -223.414062 C 73.171875 -223.414062 8.996094 -177.832031 8.996094 -107.957031 C 8.996094 -38.085938 73.171875 7.496094 170.933594 7.496094 Z M 170.933594 -58.476562 C 131.050781 -58.476562 104.960938 -77.96875 104.960938 -107.957031 C 104.960938 -137.945312 131.050781 -157.4375 170.933594 -157.4375 C 210.820312 -157.4375 236.910156 -137.945312 236.910156 -107.957031 C 236.910156 -77.96875 210.820312 -58.476562 170.933594 -58.476562 Z M 170.933594 -58.476562 "/></g></g></g><g fill="#ffffff" fill-opacity="1"><g transform="translate(1781.722924, 1377.998408)"><g><path d="M 14.996094 0 L 104.960938 0 L 104.960938 -127.449219 L 105.257812 -127.449219 L 203.921875 0 L 317.878906 0 L 317.878906 -215.917969 L 227.910156 -215.917969 L 227.910156 -90.863281 L 227.613281 -90.863281 L 128.949219 -215.917969 L 14.996094 -215.917969 Z M 14.996094 0 "/></g></g></g><g fill="#ffffff" fill-opacity="1"><g transform="translate(2114.593941, 1377.998408)"><g><path d="M 14.996094 0 L 104.960938 0 L 104.960938 -127.449219 L 105.257812 -127.449219 L 203.921875 0 L 317.878906 0 L 317.878906 -215.917969 L 227.910156 -215.917969 L 227.910156 -90.863281 L 227.613281 -90.863281 L 128.949219 -215.917969 L 14.996094 -215.917969 Z M 14.996094 0 "/></g></g></g><g fill="#ffffff" fill-opacity="1"><g transform="translate(2447.464957, 1377.998408)"><g><path d="M 14.996094 0 L 251.902344 0 L 251.902344 -56.976562 L 107.957031 -56.976562 L 107.957031 -85.46875 L 236.910156 -85.46875 L 236.910156 -133.449219 L 107.957031 -133.449219 L 107.957031 -158.9375 L 248.902344 -158.9375 L 248.902344 -215.917969 L 14.996094 -215.917969 Z M 14.996094 0 "/></g></g></g><g fill="#ffffff" fill-opacity="1"><g transform="translate(2705.3649, 1377.998408)"><g><path d="M 170.335938 4.5 C 254.300781 4.5 313.679688 -29.6875 323.574219 -83.667969 L 235.109375 -98.0625 C 230.910156 -75.570312 206.921875 -61.476562 173.035156 -61.476562 C 131.347656 -61.476562 104.960938 -79.46875 104.960938 -107.957031 C 104.960938 -136.449219 128.050781 -154.441406 164.035156 -154.441406 C 189.527344 -154.441406 209.617188 -143.042969 215.917969 -125.050781 L 303.183594 -141.546875 C 289.386719 -189.828125 234.210938 -220.414062 161.335938 -220.414062 C 68.074219 -220.414062 8.996094 -176.632812 8.996094 -107.957031 C 8.996094 -36.285156 71.671875 4.5 170.335938 4.5 Z M 170.335938 4.5 "/></g></g></g><g fill="#ffffff" fill-opacity="1"><g transform="translate(3031.938234, 1377.998408)"><g><path d="M 80.96875 0 L 176.933594 0 L 176.933594 -149.941406 L 254.902344 -149.941406 L 254.902344 -215.917969 L 3 -215.917969 L 3 -149.941406 L 80.96875 -149.941406 Z M 80.96875 0 "/></g></g></g><g fill="#ffffff" fill-opacity="1"><g transform="translate(3289.838357, 1377.998408)"><g><path d="M 14.996094 0 L 110.359375 0 L 110.359375 -215.917969 L 14.996094 -215.917969 Z M 14.996094 0 "/></g></g></g><g fill="#ffffff" fill-opacity="1"><g transform="translate(3415.189772, 1377.998408)"><g><path d="M 14.996094 0 L 104.960938 0 L 104.960938 -127.449219 L 105.257812 -127.449219 L 203.921875 0 L 317.878906 0 L 317.878906 -215.917969 L 227.910156 -215.917969 L 227.910156 -90.863281 L 227.613281 -90.863281 L 128.949219 -215.917969 L 14.996094 -215.917969 Z M 14.996094 0 "/></g></g></g><g fill="#ffffff" fill-opacity="1"><g transform="translate(3748.060788, 1377.998408)"><g><path d="M 146.644531 4.5 C 188.328125 4.5 228.511719 -10.195312 248.003906 -32.386719 L 248.304688 -32.386719 L 251.304688 0 L 326.273438 0 L 326.273438 -125.953125 L 137.945312 -125.953125 L 137.945312 -80.96875 L 233.910156 -80.96875 C 230.011719 -65.675781 207.21875 -55.480469 176.332031 -55.480469 C 133.148438 -55.480469 104.960938 -74.972656 104.960938 -104.960938 C 104.960938 -136.746094 128.949219 -157.4375 165.234375 -157.4375 C 188.925781 -157.4375 207.519531 -147.84375 212.316406 -132.847656 L 301.984375 -146.941406 C 293.886719 -191.328125 239.90625 -220.414062 165.535156 -220.414062 C 71.074219 -220.414062 8.996094 -173.632812 8.996094 -101.960938 C 8.996094 -37.785156 63.574219 4.5 146.644531 4.5 Z M 146.644531 4.5 "/></g></g></g><g fill="#ffffff" fill-opacity="1"><g transform="translate(1018.959065, 1623.903527)"><g><path d="M 103.460938 0 L 199.421875 0 L 199.421875 -71.972656 L 300.785156 -215.917969 L 200.921875 -215.917969 L 151.742188 -131.949219 L 151.441406 -131.949219 L 98.660156 -215.917969 L 0 -215.917969 L 103.460938 -71.972656 Z M 103.460938 0 "/></g></g></g><g fill="#ffffff" fill-opacity="1"><g transform="translate(1319.742514, 1623.903527)"><g><path d="M 170.933594 7.496094 C 268.695312 7.496094 332.871094 -38.085938 332.871094 -107.957031 C 332.871094 -177.832031 268.695312 -223.414062 170.933594 -223.414062 C 73.171875 -223.414062 8.996094 -177.832031 8.996094 -107.957031 C 8.996094 -38.085938 73.171875 7.496094 170.933594 7.496094 Z M 170.933594 -58.476562 C 131.050781 -58.476562 104.960938 -77.96875 104.960938 -107.957031 C 104.960938 -137.945312 131.050781 -157.4375 170.933594 -157.4375 C 210.820312 -157.4375 236.910156 -137.945312 236.910156 -107.957031 C 236.910156 -77.96875 210.820312 -58.476562 170.933594 -58.476562 Z M 170.933594 -58.476562 "/></g></g></g><g fill="#ffffff" fill-opacity="1"><g transform="translate(1661.609969, 1623.903527)"><g><path d="M 157.4375 4.5 C 251.003906 4.5 302.882812 -32.386719 302.882812 -98.960938 L 302.882812 -215.917969 L 206.921875 -215.917969 L 206.921875 -104.960938 C 206.921875 -76.769531 189.226562 -62.976562 157.4375 -62.976562 C 125.652344 -62.976562 107.957031 -76.769531 107.957031 -104.960938 L 107.957031 -215.917969 L 11.996094 -215.917969 L 11.996094 -98.960938 C 11.996094 -32.386719 63.875 4.5 157.4375 4.5 Z M 157.4375 4.5 "/></g></g></g><g fill="#ffffff" fill-opacity="1"><g transform="translate(1976.487928, 1623.903527)"><g><path d="M 14.996094 0 L 104.960938 0 L 104.960938 -127.449219 L 105.257812 -127.449219 L 203.921875 0 L 317.878906 0 L 317.878906 -215.917969 L 227.910156 -215.917969 L 227.910156 -90.863281 L 227.613281 -90.863281 L 128.949219 -215.917969 L 14.996094 -215.917969 Z M 14.996094 0 "/></g></g></g><g fill="#ffffff" fill-opacity="1"><g transform="translate(2309.358944, 1623.903527)"><g><path d="M 146.644531 4.5 C 188.328125 4.5 228.511719 -10.195312 248.003906 -32.386719 L 248.304688 -32.386719 L 251.304688 0 L 326.273438 0 L 326.273438 -125.953125 L 137.945312 -125.953125 L 137.945312 -80.96875 L 233.910156 -80.96875 C 230.011719 -65.675781 207.21875 -55.480469 176.332031 -55.480469 C 133.148438 -55.480469 104.960938 -74.972656 104.960938 -104.960938 C 104.960938 -136.746094 128.949219 -157.4375 165.234375 -157.4375 C 188.925781 -157.4375 207.519531 -147.84375 212.316406 -132.847656 L 301.984375 -146.941406 C 293.886719 -191.328125 239.90625 -220.414062 165.535156 -220.414062 C 71.074219 -220.414062 8.996094 -173.632812 8.996094 -101.960938 C 8.996094 -37.785156 63.574219 4.5 146.644531 4.5 Z M 146.644531 4.5 "/></g></g></g><g fill="#ffffff" fill-opacity="1"><g transform="translate(2646.128419, 1623.903527)"><g/></g></g><g fill="#ffffff" fill-opacity="1"><g transform="translate(2709.103937, 1623.903527)"><g><path d="M 14.996094 0 L 104.960938 0 L 104.960938 -118.15625 L 105.558594 -118.15625 L 164.9375 0 L 242.90625 0 L 299.285156 -118.15625 L 299.882812 -118.15625 L 299.882812 0 L 389.847656 0 L 389.847656 -215.917969 L 266.296875 -215.917969 L 202.421875 -84.566406 L 201.820312 -84.566406 L 136.746094 -215.917969 L 14.996094 -215.917969 Z M 14.996094 0 "/></g></g></g><g fill="#ffffff" fill-opacity="1"><g transform="translate(3113.946996, 1623.903527)"><g><path d="M 14.996094 0 L 110.359375 0 L 110.359375 -215.917969 L 14.996094 -215.917969 Z M 14.996094 0 "/></g></g></g><g fill="#ffffff" fill-opacity="1"><g transform="translate(3239.29841, 1623.903527)"><g><path d="M 14.996094 0 L 104.960938 0 L 104.960938 -127.449219 L 105.257812 -127.449219 L 203.921875 0 L 317.878906 0 L 317.878906 -215.917969 L 227.910156 -215.917969 L 227.910156 -90.863281 L 227.613281 -90.863281 L 128.949219 -215.917969 L 14.996094 -215.917969 Z M 14.996094 0 "/></g></g></g><g fill="#ffffff" fill-opacity="1"><g transform="translate(3572.169426, 1623.903527)"><g><path d="M 14.996094 0 L 176.632812 0 C 261.5 0 308.878906 -38.683594 308.878906 -107.957031 C 308.878906 -177.230469 261.5 -215.917969 176.632812 -215.917969 L 14.996094 -215.917969 Z M 107.957031 -62.976562 L 107.957031 -152.941406 L 161.636719 -152.941406 C 196.425781 -152.941406 215.917969 -136.746094 215.917969 -107.957031 C 215.917969 -79.167969 196.425781 -62.976562 161.636719 -62.976562 Z M 107.957031 -62.976562 "/></g></g></g><g fill="#ffffff" fill-opacity="1"><g transform="translate(3890.046228, 1623.903527)"><g><path d="M 143.34375 5.996094 C 229.113281 5.996094 283.390625 -25.789062 283.089844 -71.972656 C 283.089844 -113.054688 250.101562 -133.449219 173.332031 -140.347656 L 137.945312 -143.34375 C 112.457031 -145.445312 101.359375 -148.742188 101.660156 -153.839844 C 101.960938 -161.9375 122.351562 -166.136719 150.84375 -166.4375 C 181.730469 -166.734375 218.015625 -159.539062 245.003906 -146.644531 L 267.195312 -201.523438 C 236.910156 -214.71875 193.726562 -222.214844 149.941406 -222.214844 C 65.375 -222.214844 8.996094 -195.523438 8.695312 -146.941406 C 8.695312 -106.757812 40.484375 -86.667969 114.554688 -79.769531 L 149.042969 -76.46875 C 177.832031 -74.070312 190.125 -70.171875 190.125 -63.875 C 190.125 -56.078125 174.234375 -52.480469 148.441406 -52.480469 C 110.359375 -52.480469 63.875 -63.574219 33.886719 -78.871094 L 5.996094 -21.589844 C 38.683594 -5.097656 95.363281 5.996094 143.34375 5.996094 Z M 143.34375 5.996094 "/></g></g></g><g fill="#ffffff" fill-opacity="1"><g transform="translate(4179.142105, 1623.903527)"><g/></g></g><g clip-path="url(#76b70036ce)"><g clip-path="url(#1bd22b3da9)"><path stroke-linecap="butt" transform="matrix(0.749711, 0, 0, 0.749711, 2344.369743, 259.100128)" fill="none" stroke-linejoin="miter" d="M 90.906655 0.00191363 L 569.679858 0.00191363 C 593.788114 0.00191363 616.911616 9.578524 633.959858 26.626766 C 651.0081 43.675008 660.584711 66.79851 660.584711 90.906767 C 660.584711 115.015024 651.0081 138.138526 633.959858 155.186768 C 616.911616 172.23501 593.788114 181.81162 569.679858 181.81162 L 90.906655 181.81162 C 66.798399 181.81162 43.674897 172.23501 26.626655 155.186768 C 9.578413 138.138526 0.00180224 115.015024 0.00180224 90.906767 C 0.00180224 66.79851 9.578413 43.675008 26.626655 26.626766 C 43.674897 9.578524 66.798399 0.00191363 90.906655 0.00191363 Z M 90.906655 0.00191363 " stroke="#ffffff" stroke-width="16" stroke-opacity="1" stroke-miterlimit="4"/></g></g><g fill="#ffffff" fill-opacity="1"><g transform="translate(2394.386914, 343.067729)"><g><path d="M 23.972656 -19.75 C 27.417969 -21.3125 29.691406 -24.429688 29.691406 -28.585938 C 29.691406 -34.695312 24.882812 -38.984375 18.90625 -38.984375 L 4.742188 -38.984375 L 4.742188 0 L 20.269531 0 C 26.183594 0 30.925781 -4.222656 30.925781 -10.265625 C 30.925781 -15.007812 28.066406 -18.386719 23.972656 -19.75 Z M 25.535156 -28.261719 C 25.535156 -24.429688 22.351562 -21.503906 18.453125 -21.503906 L 8.835938 -21.503906 L 8.835938 -34.824219 L 18.453125 -34.824219 C 22.351562 -34.824219 25.535156 -32.097656 25.535156 -28.261719 Z M 19.75 -4.15625 L 8.835938 -4.15625 L 8.835938 -17.476562 L 19.75 -17.476562 C 23.585938 -17.476562 26.769531 -14.554688 26.769531 -10.71875 C 26.769531 -6.886719 23.585938 -4.15625 19.75 -4.15625 Z M 19.75 -4.15625 "/></g></g></g><g fill="#ffffff" fill-opacity="1"><g transform="translate(2428.366246, 343.067729)"><g><path d="M 26.378906 -34.953125 L 26.378906 -38.984375 L 5.066406 -38.984375 L 5.066406 0 L 26.378906 0 L 26.378906 -4.027344 L 9.226562 -4.027344 L 9.226562 -17.476562 L 24.167969 -17.476562 L 24.167969 -21.503906 L 9.226562 -21.503906 L 9.226562 -34.953125 Z M 26.378906 -34.953125 "/></g></g></g><g fill="#ffffff" fill-opacity="1"><g transform="translate(2458.64228, 343.067729)"><g><path d="M 28.261719 0 L 32.8125 0 L 18.710938 -38.984375 L 14.097656 -38.984375 L 0 0 L 4.546875 0 L 7.730469 -9.097656 L 25.078125 -9.097656 Z M 9.097656 -13.058594 L 16.4375 -34.046875 L 23.714844 -13.058594 Z M 9.097656 -13.058594 "/></g></g></g><g fill="#ffffff" fill-opacity="1"><g transform="translate(2491.452146, 343.067729)"><g><path d="M 19.167969 0.519531 C 27.679688 0.519531 33.851562 -5.132812 33.851562 -12.800781 L 33.851562 -38.984375 L 29.691406 -38.984375 L 29.691406 -13.449219 C 29.691406 -7.796875 25.210938 -3.636719 19.167969 -3.636719 C 13.125 -3.636719 8.707031 -7.796875 8.707031 -13.449219 L 8.707031 -38.984375 L 4.546875 -38.984375 L 4.546875 -12.800781 C 4.546875 -5.132812 10.71875 0.519531 19.167969 0.519531 Z M 19.167969 0.519531 "/></g></g></g><g fill="#ffffff" fill-opacity="1"><g transform="translate(2529.849436, 343.067729)"><g/></g></g><g fill="#ffffff" fill-opacity="1"><g transform="translate(2545.507221, 343.067729)"><g><path d="M 4.742188 0 L 15.398438 0 C 26.117188 0 34.890625 -8.707031 34.890625 -19.492188 C 34.890625 -30.277344 26.117188 -38.984375 15.398438 -38.984375 L 4.742188 -38.984375 Z M 8.835938 -4.15625 L 8.835938 -34.824219 L 15.332031 -34.824219 C 23.972656 -34.824219 30.730469 -28.261719 30.730469 -19.492188 C 30.730469 -10.71875 23.972656 -4.15625 15.332031 -4.15625 Z M 8.835938 -4.15625 "/></g></g></g><g fill="#ffffff" fill-opacity="1"><g transform="translate(2583.57967, 343.067729)"><g><path d="M 19.167969 0.519531 C 27.679688 0.519531 33.851562 -5.132812 33.851562 -12.800781 L 33.851562 -38.984375 L 29.691406 -38.984375 L 29.691406 -13.449219 C 29.691406 -7.796875 25.210938 -3.636719 19.167969 -3.636719 C 13.125 -3.636719 8.707031 -7.796875 8.707031 -13.449219 L 8.707031 -38.984375 L 4.546875 -38.984375 L 4.546875 -12.800781 C 4.546875 -5.132812 10.71875 0.519531 19.167969 0.519531 Z M 19.167969 0.519531 "/></g></g></g><g fill="#ffffff" fill-opacity="1"><g transform="translate(2621.976971, 343.067729)"><g><path d="M 20.53125 -17.800781 C 25.664062 -18.515625 29.5625 -22.804688 29.5625 -28.066406 C 29.5625 -34.175781 24.6875 -38.984375 18.710938 -38.984375 L 4.742188 -38.984375 L 4.742188 0 L 8.902344 0 L 8.902344 -17.605469 L 16.242188 -17.605469 L 27.289062 0 L 32.03125 0 Z M 8.902344 -21.570312 L 8.902344 -34.824219 L 18.453125 -34.824219 C 22.351562 -34.824219 25.402344 -32.097656 25.402344 -28.199219 C 25.402344 -24.234375 22.414062 -21.570312 18.453125 -21.570312 Z M 8.902344 -21.570312 "/></g></g></g><g fill="#ffffff" fill-opacity="1"><g transform="translate(2654.591927, 343.067729)"><g><path d="M 39.113281 -38.984375 L 24.105469 -5.003906 L 9.160156 -38.984375 L 4.742188 -38.984375 L 4.742188 0 L 8.902344 0 L 8.902344 -30.796875 L 22.351562 0 L 25.792969 0 L 39.371094 -30.667969 L 39.371094 0 L 43.464844 0 L 43.464844 -38.984375 Z M 39.113281 -38.984375 "/></g></g></g><g fill="#ffffff" fill-opacity="1"><g transform="translate(2702.799713, 343.067729)"><g><path d="M 28.261719 0 L 32.8125 0 L 18.710938 -38.984375 L 14.097656 -38.984375 L 0 0 L 4.546875 0 L 7.730469 -9.097656 L 25.078125 -9.097656 Z M 9.097656 -13.058594 L 16.4375 -34.046875 L 23.714844 -13.058594 Z M 9.097656 -13.058594 "/></g></g></g><g fill="#ffffff" fill-opacity="1"><g transform="translate(2735.609579, 343.067729)"><g><path d="M 32.746094 -38.984375 L 32.746094 -6.953125 L 8.640625 -38.984375 L 4.742188 -38.984375 L 4.742188 0 L 8.902344 0 L 8.902344 -32.03125 L 32.941406 0 L 36.839844 0 L 36.839844 -38.984375 Z M 32.746094 -38.984375 "/></g></g></g><g fill="#ffffff" fill-opacity="1"><g transform="translate(2777.190406, 343.067729)"><g><path d="M 6.171875 0.519531 C 8.121094 0.519531 9.746094 -1.105469 9.746094 -3.054688 C 9.746094 -5.003906 8.121094 -6.628906 6.171875 -6.628906 C 4.289062 -6.628906 2.597656 -5.003906 2.597656 -3.054688 C 2.597656 -1.105469 4.289062 0.519531 6.171875 0.519531 Z M 6.171875 0.519531 "/></g></g></g><g fill="#ffffff" fill-opacity="1"><g transform="translate(2789.601611, 343.067729)"><g/></g></g><g clip-path="url(#117a954f2f)"><g clip-path="url(#4983305534)"><path stroke-linecap="butt" transform="matrix(0.749711, 0, 0, 0.749711, 2089.416539, 2195.589122)" fill="none" stroke-linejoin="miter" d="M 90.906761 0.000963205 L 1249.832919 0.000963205 C 1273.941176 0.000963205 1297.064678 9.577574 1314.11292 26.625816 C 1331.161162 43.674058 1340.737773 66.79756 1340.737773 90.905816 C 1340.737773 115.014073 1331.161162 138.137575 1314.11292 155.185817 C 1297.064678 172.234059 1273.941176 181.81067 1249.832919 181.81067 L 90.906761 181.81067 C 66.798504 181.81067 43.675002 172.234059 26.62676 155.185817 C 9.578518 138.137575 0.00190748 115.014073 0.00190748 90.905816 C 0.00190748 66.79756 9.578518 43.674058 26.62676 26.625816 C 43.675002 9.577574 66.798504 0.000963205 90.906761 0.000963205 Z M 90.906761 0.000963205 " stroke="#ffffff" stroke-width="16" stroke-opacity="1" stroke-miterlimit="4"/></g></g><g fill="#ffffff" fill-opacity="1"><g transform="translate(2260.357844, 2279.556723)"><g><path d="M 48.664062 -38.984375 L 38.660156 -6.953125 L 29.171875 -38.984375 L 23.324219 -38.984375 L 13.96875 -7.015625 L 4.027344 -38.984375 L -0.390625 -38.984375 L 11.824219 0 L 16.242188 0 L 26.25 -34.566406 L 36.449219 0 L 40.800781 0 L 52.953125 -38.984375 Z M 48.664062 -38.984375 "/></g></g></g><g fill="#ffffff" fill-opacity="1"><g transform="translate(2312.918611, 2279.556723)"><g><path d="M 48.664062 -38.984375 L 38.660156 -6.953125 L 29.171875 -38.984375 L 23.324219 -38.984375 L 13.96875 -7.015625 L 4.027344 -38.984375 L -0.390625 -38.984375 L 11.824219 0 L 16.242188 0 L 26.25 -34.566406 L 36.449219 0 L 40.800781 0 L 52.953125 -38.984375 Z M 48.664062 -38.984375 "/></g></g></g><g fill="#ffffff" fill-opacity="1"><g transform="translate(2365.479378, 2279.556723)"><g><path d="M 48.664062 -38.984375 L 38.660156 -6.953125 L 29.171875 -38.984375 L 23.324219 -38.984375 L 13.96875 -7.015625 L 4.027344 -38.984375 L -0.390625 -38.984375 L 11.824219 0 L 16.242188 0 L 26.25 -34.566406 L 36.449219 0 L 40.800781 0 L 52.953125 -38.984375 Z M 48.664062 -38.984375 "/></g></g></g><g fill="#ffffff" fill-opacity="1"><g transform="translate(2418.040145, 2279.556723)"><g><path d="M 6.171875 0.519531 C 8.121094 0.519531 9.746094 -1.105469 9.746094 -3.054688 C 9.746094 -5.003906 8.121094 -6.628906 6.171875 -6.628906 C 4.289062 -6.628906 2.597656 -5.003906 2.597656 -3.054688 C 2.597656 -1.105469 4.289062 0.519531 6.171875 0.519531 Z M 6.171875 0.519531 "/></g></g></g><g fill="#ffffff" fill-opacity="1"><g transform="translate(2430.449427, 2279.556723)"><g><path d="M 14.554688 0.519531 C 21.179688 0.519531 26.574219 -3.445312 26.574219 -10.265625 C 26.574219 -23.519531 7.601562 -20.269531 7.601562 -29.5625 C 7.601562 -33.460938 10.785156 -35.34375 14.421875 -35.34375 C 17.414062 -35.34375 19.882812 -34.109375 21.441406 -31.902344 L 24.6875 -34.628906 C 22.546875 -37.359375 18.777344 -39.503906 14.292969 -39.503906 C 8.316406 -39.503906 3.445312 -35.605469 3.445312 -29.238281 C 3.445312 -16.699219 22.414062 -19.816406 22.414062 -10.136719 C 22.414062 -5.976562 18.972656 -3.636719 14.617188 -3.636719 C 10.199219 -3.636719 7.015625 -6.042969 5.652344 -9.617188 L 1.882812 -7.40625 C 3.898438 -2.597656 8.769531 0.519531 14.554688 0.519531 Z M 14.554688 0.519531 "/></g></g></g><g fill="#ffffff" fill-opacity="1"><g transform="translate(2458.906311, 2279.556723)"><g><path d="M 26.3125 -38.984375 L 0.585938 -38.984375 L 0.585938 -34.824219 L 11.371094 -34.824219 L 11.371094 0 L 15.527344 0 L 15.527344 -34.824219 L 26.3125 -34.824219 Z M 26.3125 -38.984375 "/></g></g></g><g fill="#ffffff" fill-opacity="1"><g transform="translate(2485.803922, 2279.556723)"><g><path d="M 19.167969 0.519531 C 27.679688 0.519531 33.851562 -5.132812 33.851562 -12.800781 L 33.851562 -38.984375 L 29.691406 -38.984375 L 29.691406 -13.449219 C 29.691406 -7.796875 25.210938 -3.636719 19.167969 -3.636719 C 13.125 -3.636719 8.707031 -7.796875 8.707031 -13.449219 L 8.707031 -38.984375 L 4.546875 -38.984375 L 4.546875 -12.800781 C 4.546875 -5.132812 10.71875 0.519531 19.167969 0.519531 Z M 19.167969 0.519531 "/></g></g></g><g fill="#ffffff" fill-opacity="1"><g transform="translate(2524.201201, 2279.556723)"><g><path d="M 4.742188 0 L 15.398438 0 C 26.117188 0 34.890625 -8.707031 34.890625 -19.492188 C 34.890625 -30.277344 26.117188 -38.984375 15.398438 -38.984375 L 4.742188 -38.984375 Z M 8.835938 -4.15625 L 8.835938 -34.824219 L 15.332031 -34.824219 C 23.972656 -34.824219 30.730469 -28.261719 30.730469 -19.492188 C 30.730469 -10.71875 23.972656 -4.15625 15.332031 -4.15625 Z M 8.835938 -4.15625 "/></g></g></g><g fill="#ffffff" fill-opacity="1"><g transform="translate(2562.273639, 2279.556723)"><g><path d="M 31.445312 -38.984375 L 26.3125 -38.984375 L 15.789062 -22.804688 L 5.261719 -38.984375 L 0.0664062 -38.984375 L 13.710938 -18.453125 L 13.710938 0 L 17.867188 0 L 17.867188 -18.515625 Z M 31.445312 -38.984375 "/></g></g></g><g fill="#ffffff" fill-opacity="1"><g transform="translate(2593.784094, 2279.556723)"><g><path d="M 23.972656 -19.75 C 27.417969 -21.3125 29.691406 -24.429688 29.691406 -28.585938 C 29.691406 -34.695312 24.882812 -38.984375 18.90625 -38.984375 L 4.742188 -38.984375 L 4.742188 0 L 20.269531 0 C 26.183594 0 30.925781 -4.222656 30.925781 -10.265625 C 30.925781 -15.007812 28.066406 -18.386719 23.972656 -19.75 Z M 25.535156 -28.261719 C 25.535156 -24.429688 22.351562 -21.503906 18.453125 -21.503906 L 8.835938 -21.503906 L 8.835938 -34.824219 L 18.453125 -34.824219 C 22.351562 -34.824219 25.535156 -32.097656 25.535156 -28.261719 Z M 19.75 -4.15625 L 8.835938 -4.15625 L 8.835938 -17.476562 L 19.75 -17.476562 C 23.585938 -17.476562 26.769531 -14.554688 26.769531 -10.71875 C 26.769531 -6.886719 23.585938 -4.15625 19.75 -4.15625 Z M 19.75 -4.15625 "/></g></g></g><g fill="#ffffff" fill-opacity="1"><g transform="translate(2627.763415, 2279.556723)"><g><path d="M 19.167969 0.519531 C 27.679688 0.519531 33.851562 -5.132812 33.851562 -12.800781 L 33.851562 -38.984375 L 29.691406 -38.984375 L 29.691406 -13.449219 C 29.691406 -7.796875 25.210938 -3.636719 19.167969 -3.636719 C 13.125 -3.636719 8.707031 -7.796875 8.707031 -13.449219 L 8.707031 -38.984375 L 4.546875 -38.984375 L 4.546875 -12.800781 C 4.546875 -5.132812 10.71875 0.519531 19.167969 0.519531 Z M 19.167969 0.519531 "/></g></g></g><g fill="#ffffff" fill-opacity="1"><g transform="translate(2666.160693, 2279.556723)"><g><path d="M 4.742188 0 L 15.398438 0 C 26.117188 0 34.890625 -8.707031 34.890625 -19.492188 C 34.890625 -30.277344 26.117188 -38.984375 15.398438 -38.984375 L 4.742188 -38.984375 Z M 8.835938 -4.15625 L 8.835938 -34.824219 L 15.332031 -34.824219 C 23.972656 -34.824219 30.730469 -28.261719 30.730469 -19.492188 C 30.730469 -10.71875 23.972656 -4.15625 15.332031 -4.15625 Z M 8.835938 -4.15625 "/></g></g></g><g fill="#ffffff" fill-opacity="1"><g transform="translate(2704.233131, 2279.556723)"><g><path d="M 4.742188 0 L 15.398438 0 C 26.117188 0 34.890625 -8.707031 34.890625 -19.492188 C 34.890625 -30.277344 26.117188 -38.984375 15.398438 -38.984375 L 4.742188 -38.984375 Z M 8.835938 -4.15625 L 8.835938 -34.824219 L 15.332031 -34.824219 C 23.972656 -34.824219 30.730469 -28.261719 30.730469 -19.492188 C 30.730469 -10.71875 23.972656 -4.15625 15.332031 -4.15625 Z M 8.835938 -4.15625 "/></g></g></g><g fill="#ffffff" fill-opacity="1"><g transform="translate(2742.305568, 2279.556723)"><g><path d="M 31.445312 -38.984375 L 26.3125 -38.984375 L 15.789062 -22.804688 L 5.261719 -38.984375 L 0.0664062 -38.984375 L 13.710938 -18.453125 L 13.710938 0 L 17.867188 0 L 17.867188 -18.515625 Z M 31.445312 -38.984375 "/></g></g></g><g fill="#ffffff" fill-opacity="1"><g transform="translate(2773.816024, 2279.556723)"><g><path d="M 6.171875 0.519531 C 8.121094 0.519531 9.746094 -1.105469 9.746094 -3.054688 C 9.746094 -5.003906 8.121094 -6.628906 6.171875 -6.628906 C 4.289062 -6.628906 2.597656 -5.003906 2.597656 -3.054688 C 2.597656 -1.105469 4.289062 0.519531 6.171875 0.519531 Z M 6.171875 0.519531 "/></g></g></g><g fill="#ffffff" fill-opacity="1"><g transform="translate(2786.225283, 2279.556723)"><g><path d="M 23.195312 0.519531 C 30.667969 0.519531 37.164062 -3.574219 40.605469 -9.617188 L 37.035156 -11.628906 C 34.371094 -6.820312 29.171875 -3.636719 23.195312 -3.636719 C 14.421875 -3.636719 7.34375 -10.65625 7.34375 -19.492188 C 7.34375 -28.328125 14.421875 -35.34375 23.195312 -35.34375 C 29.171875 -35.34375 34.371094 -32.160156 37.035156 -27.351562 L 40.605469 -29.367188 C 37.164062 -35.410156 30.667969 -39.503906 23.195312 -39.503906 C 12.148438 -39.503906 3.183594 -30.535156 3.183594 -19.492188 C 3.183594 -8.445312 12.148438 0.519531 23.195312 0.519531 Z M 23.195312 0.519531 "/></g></g></g><g fill="#ffffff" fill-opacity="1"><g transform="translate(2828.975542, 2279.556723)"><g><path d="M 23.195312 0.519531 C 34.304688 0.519531 43.207031 -8.445312 43.207031 -19.492188 C 43.207031 -30.535156 34.304688 -39.503906 23.195312 -39.503906 C 12.148438 -39.503906 3.183594 -30.535156 3.183594 -19.492188 C 3.183594 -8.445312 12.148438 0.519531 23.195312 0.519531 Z M 23.195312 -3.636719 C 14.421875 -3.636719 7.34375 -10.65625 7.34375 -19.492188 C 7.34375 -28.328125 14.421875 -35.34375 23.195312 -35.34375 C 32.03125 -35.34375 39.046875 -28.328125 39.046875 -19.492188 C 39.046875 -10.65625 32.03125 -3.636719 23.195312 -3.636719 Z M 23.195312 -3.636719 "/></g></g></g><g fill="#ffffff" fill-opacity="1"><g transform="translate(2875.429145, 2279.556723)"><g><path d="M 39.113281 -38.984375 L 24.105469 -5.003906 L 9.160156 -38.984375 L 4.742188 -38.984375 L 4.742188 0 L 8.902344 0 L 8.902344 -30.796875 L 22.351562 0 L 25.792969 0 L 39.371094 -30.667969 L 39.371094 0 L 43.464844 0 L 43.464844 -38.984375 Z M 39.113281 -38.984375 "/></g></g></g><g clip-path="url(#0d910d4582)"><g clip-path="url(#34a6526848)"><path fill="#ffffff" d="M 2179.144531 2234.074219 L 2179.144531 2293.285156 L 2238.292969 2293.285156 L 2238.292969 2234.074219 Z M 2179.144531 2234.074219 " fill-opacity="1" fill-rule="nonzero"/></g></g><g clip-path="url(#faed82d93b)"><g clip-path="url(#d2c51c5915)"><path fill="#ffffff" d="M 2945.703125 2234.074219 L 2945.703125 2293.285156 L 3004.851562 2293.285156 L 3004.851562 2234.074219 Z M 2945.703125 2234.074219 " fill-opacity="1" fill-rule="nonzero"/></g></g><g clip-path="url(#201df3141e)"><path fill="#ffffff" d="M 573.164062 1539.933594 C 426.621094 1539.933594 416.632812 1549.941406 416.632812 1696.710938 C 416.632812 1549.941406 406.640625 1539.933594 260.101562 1539.933594 C 406.640625 1539.933594 416.632812 1529.929688 416.632812 1383.160156 C 416.632812 1529.929688 426.621094 1539.933594 573.164062 1539.933594 " fill-opacity="1" fill-rule="nonzero"/></g><path fill="#ffffff" d="M 491.804688 1463.53125 C 421.429688 1535.058594 421.515625 1544.738281 493.152344 1615.226562 C 421.515625 1544.738281 411.832031 1544.8125 341.457031 1616.335938 C 411.832031 1544.8125 411.746094 1535.128906 340.109375 1464.640625 C 411.746094 1535.128906 421.429688 1535.058594 491.804688 1463.53125 " fill-opacity="1" fill-rule="nonzero"/><g fill="#ffffff" fill-opacity="1"><g transform="translate(1948.025375, 1744.542875)"><g><path d="M 62.617188 3.105469 C 95.40625 3.105469 117 -9.984375 116.863281 -29.148438 C 116.863281 -45.613281 103.773438 -54.25 73.140625 -57.757812 L 53.035156 -60.320312 C 39.269531 -61.941406 33.332031 -64.910156 33.46875 -70.039062 C 33.46875 -77.054688 44.398438 -81.644531 59.648438 -81.777344 C 75.4375 -81.777344 90.953125 -76.246094 99.996094 -68.015625 L 109.308594 -83.53125 C 98.917969 -92.980469 80.160156 -99.1875 59.511719 -99.1875 C 28.339844 -99.1875 7.015625 -87.714844 6.882812 -68.148438 C 6.882812 -52.226562 18.894531 -44.128906 46.691406 -40.890625 L 66.933594 -38.191406 C 83.398438 -36.167969 90.414062 -32.523438 90.414062 -26.855469 C 90.414062 -19.835938 80.023438 -15.113281 63.964844 -15.113281 C 43.589844 -15.113281 22.804688 -23.074219 13.628906 -34.277344 L 2.699219 -18.351562 C 13.628906 -5.804688 37.785156 3.105469 62.617188 3.105469 Z M 62.617188 3.105469 "/></g></g></g><g fill="#ffffff" fill-opacity="1"><g transform="translate(2067.589284, 1744.542875)"><g><path d="M 41.292969 0 L 68.417969 0 L 68.417969 -76.378906 L 108.632812 -76.378906 L 108.632812 -96.082031 L 0.945312 -96.082031 L 0.945312 -76.378906 L 41.292969 -76.378906 Z M 41.292969 0 "/></g></g></g><g fill="#ffffff" fill-opacity="1"><g transform="translate(2177.167041, 1744.542875)"><g><path d="M 64.101562 2.699219 C 100.671875 2.699219 122.9375 -13.898438 122.9375 -43.859375 L 122.9375 -96.082031 L 95.8125 -96.082031 L 95.8125 -45.207031 C 95.8125 -26.71875 83.53125 -17.542969 64.234375 -17.542969 C 44.9375 -17.542969 32.65625 -26.71875 32.65625 -45.207031 L 32.65625 -96.082031 L 5.398438 -96.082031 L 5.398438 -43.859375 C 5.398438 -13.898438 27.664062 2.699219 64.101562 2.699219 Z M 64.101562 2.699219 "/></g></g></g><g fill="#ffffff" fill-opacity="1"><g transform="translate(2305.502584, 1744.542875)"><g><path d="M 6.746094 0 L 71.117188 0 C 108.09375 0 128.605469 -17.136719 128.605469 -48.042969 C 128.605469 -78.945312 108.09375 -96.082031 71.117188 -96.082031 L 6.746094 -96.082031 Z M 33.195312 -19.027344 L 33.195312 -77.054688 L 67.742188 -77.054688 C 89.875 -77.054688 102.15625 -66.664062 102.15625 -48.042969 C 102.15625 -29.417969 89.875 -19.027344 67.742188 -19.027344 Z M 33.195312 -19.027344 "/></g></g></g><g fill="#ffffff" fill-opacity="1"><g transform="translate(2438.831207, 1744.542875)"><g><path d="M 47.230469 0 L 74.355469 0 L 74.355469 -33.871094 L 120.914062 -96.082031 L 91.359375 -96.082031 L 60.863281 -52.496094 L 60.726562 -52.496094 L 29.285156 -96.082031 L -0.136719 -96.082031 L 47.230469 -33.871094 Z M 47.230469 0 "/></g></g></g><g fill="#ffffff" fill-opacity="1"><g transform="translate(2559.744575, 1744.542875)"><g/></g></g><g fill="#ffffff" fill-opacity="1"><g transform="translate(2595.100959, 1744.542875)"><g><path d="M 6.746094 0 L 85.828125 0 C 108.226562 0 121.859375 -10.257812 121.859375 -26.585938 C 121.859375 -37.515625 114.839844 -46.152344 103.503906 -48.984375 L 103.503906 -49.257812 C 113.222656 -52.359375 119.160156 -60.1875 119.160156 -69.902344 C 119.160156 -86.097656 105.933594 -96.082031 84.207031 -96.082031 L 6.746094 -96.082031 Z M 33.871094 -56.273438 L 33.871094 -80.160156 L 75.976562 -80.160156 C 85.828125 -80.160156 92.035156 -75.707031 92.035156 -68.285156 C 92.035156 -60.863281 85.828125 -56.273438 75.976562 -56.273438 Z M 33.871094 -15.925781 L 33.871094 -41.832031 L 77.054688 -41.832031 C 87.851562 -41.832031 94.734375 -36.839844 94.734375 -28.878906 C 94.734375 -20.917969 87.851562 -15.925781 77.054688 -15.925781 Z M 33.871094 -15.925781 "/></g></g></g><g fill="#ffffff" fill-opacity="1"><g transform="translate(2720.062784, 1744.542875)"><g><path d="M 64.101562 2.699219 C 100.671875 2.699219 122.9375 -13.898438 122.9375 -43.859375 L 122.9375 -96.082031 L 95.8125 -96.082031 L 95.8125 -45.207031 C 95.8125 -26.71875 83.53125 -17.542969 64.234375 -17.542969 C 44.9375 -17.542969 32.65625 -26.71875 32.65625 -45.207031 L 32.65625 -96.082031 L 5.398438 -96.082031 L 5.398438 -43.859375 C 5.398438 -13.898438 27.664062 2.699219 64.101562 2.699219 Z M 64.101562 2.699219 "/></g></g></g><g fill="#ffffff" fill-opacity="1"><g transform="translate(2848.398304, 1744.542875)"><g><path d="M 6.746094 0 L 71.117188 0 C 108.09375 0 128.605469 -17.136719 128.605469 -48.042969 C 128.605469 -78.945312 108.09375 -96.082031 71.117188 -96.082031 L 6.746094 -96.082031 Z M 33.195312 -19.027344 L 33.195312 -77.054688 L 67.742188 -77.054688 C 89.875 -77.054688 102.15625 -66.664062 102.15625 -48.042969 C 102.15625 -29.417969 89.875 -19.027344 67.742188 -19.027344 Z M 33.195312 -19.027344 "/></g></g></g><g fill="#ffffff" fill-opacity="1"><g transform="translate(2981.726927, 1744.542875)"><g><path d="M 6.746094 0 L 71.117188 0 C 108.09375 0 128.605469 -17.136719 128.605469 -48.042969 C 128.605469 -78.945312 108.09375 -96.082031 71.117188 -96.082031 L 6.746094 -96.082031 Z M 33.195312 -19.027344 L 33.195312 -77.054688 L 67.742188 -77.054688 C 89.875 -77.054688 102.15625 -66.664062 102.15625 -48.042969 C 102.15625 -29.417969 89.875 -19.027344 67.742188 -19.027344 Z M 33.195312 -19.027344 "/></g></g></g><g fill="#ffffff" fill-opacity="1"><g transform="translate(3115.055551, 1744.542875)"><g><path d="M 47.230469 0 L 74.355469 0 L 74.355469 -33.871094 L 120.914062 -96.082031 L 91.359375 -96.082031 L 60.863281 -52.496094 L 60.726562 -52.496094 L 29.285156 -96.082031 L -0.136719 -96.082031 L 47.230469 -33.871094 Z M 47.230469 0 "/></g></g></g><g clip-path="url(#c2a3a82405)"><path fill="#ffffff" d="M 2055.128906 322.984375 C 1969.75 322.984375 1963.925781 328.816406 1963.925781 414.328125 C 1963.925781 328.816406 1958.105469 322.984375 1872.726562 322.984375 C 1958.105469 322.984375 1963.925781 317.15625 1963.925781 231.644531 C 1963.925781 317.15625 1969.75 322.984375 2055.128906 322.984375 " fill-opacity="1" fill-rule="nonzero"/></g><path fill="#ffffff" d="M 2007.726562 278.46875 C 1966.722656 320.144531 1966.773438 325.785156 2008.511719 366.851562 C 1966.773438 325.785156 1961.132812 325.828125 1920.128906 367.5 C 1961.132812 325.828125 1961.082031 320.183594 1919.34375 279.117188 C 1961.082031 320.183594 1966.722656 320.144531 2007.726562 278.46875 " fill-opacity="1" fill-rule="nonzero"/><g clip-path="url(#082bf2381f)"><path fill="#ffffff" d="M 4923.890625 906.933594 C 4838.511719 906.933594 4832.6875 912.761719 4832.6875 998.277344 C 4832.6875 912.761719 4826.867188 906.933594 4741.488281 906.933594 C 4826.867188 906.933594 4832.6875 901.101562 4832.6875 815.589844 C 4832.6875 901.101562 4838.511719 906.933594 4923.890625 906.933594 " fill-opacity="1" fill-rule="nonzero"/></g><path fill="#ffffff" d="M 4876.488281 862.417969 C 4835.484375 904.089844 4835.535156 909.734375 4877.273438 950.800781 C 4835.535156 909.734375 4829.894531 909.773438 4788.890625 951.445312 C 4829.894531 909.773438 4829.84375 904.132812 4788.105469 863.066406 C 4829.84375 904.132812 4835.484375 904.089844 4876.488281 862.417969 " fill-opacity="1" fill-rule="nonzero"/><g clip-path="url(#a7fc3d9aa4)"><g clip-path="url(#1635221a5c)"><path stroke-linecap="butt" transform="matrix(0.749711, 0, 0, 0.749711, 2513.270669, 1867.579546)" fill="none" stroke-linejoin="miter" d="M 105.007734 -0.0018955 C 47.011406 -0.0018955 -0.00151788 47.011029 -0.00151788 105.007356 C -0.00151788 163.003683 47.011406 210.016608 105.007734 210.016608 C 163.004061 210.016608 210.016985 163.003683 210.016985 105.007356 C 210.016985 47.011029 163.004061 -0.0018955 105.007734 -0.0018955 Z M 105.007734 -0.0018955 " stroke="#ffffff" stroke-width="16" stroke-opacity="1" stroke-miterlimit="4"/></g></g><g clip-path="url(#046b3c5d71)"><path fill="#ffffff" d="M 2586.351562 1974.847656 C 2585.425781 1974.847656 2584.539062 1974.496094 2583.832031 1973.789062 C 2582.464844 1972.417969 2582.464844 1970.164062 2583.832031 1968.753906 L 2605.96875 1946.617188 L 2583.480469 1924.171875 C 2582.109375 1922.800781 2582.109375 1920.550781 2583.480469 1919.136719 C 2584.847656 1917.765625 2587.101562 1917.765625 2588.515625 1919.136719 L 2615.996094 1946.660156 L 2588.871094 1973.789062 C 2588.164062 1974.496094 2587.28125 1974.847656 2586.351562 1974.847656 Z M 2586.351562 1974.847656 " fill-opacity="1" fill-rule="nonzero"/></g></svg>