<svg xmlns="http://www.w3.org/2000/svg" xmlns:xlink="http://www.w3.org/1999/xlink" width="500" zoomAndPan="magnify" viewBox="0 0 375 374.999991" height="500" preserveAspectRatio="xMidYMid meet" version="1.0"><defs><clipPath id="12ce55d922"><path d="M 50.101562 55.460938 L 324 55.460938 L 324 329.140625 L 50.101562 329.140625 Z M 50.101562 55.460938 " clip-rule="nonzero"/></clipPath></defs><g clip-path="url(#12ce55d922)"><path fill="#8c52ff" d="M 186.9375 318.53125 C 117.339844 318.53125 60.710938 261.902344 60.710938 192.304688 C 60.710938 122.703125 117.339844 66.078125 186.9375 66.078125 C 256.539062 66.078125 313.160156 122.703125 313.160156 192.304688 C 313.160156 261.902344 256.539062 318.53125 186.9375 318.53125 Z M 186.9375 55.464844 C 111.488281 55.464844 50.101562 116.851562 50.101562 192.304688 C 50.101562 267.757812 111.488281 329.140625 186.9375 329.140625 C 262.390625 329.140625 323.777344 267.757812 323.777344 192.304688 C 323.777344 116.851562 262.390625 55.464844 186.9375 55.464844 " fill-opacity="1" fill-rule="nonzero"/></g><path fill="#8c52ff" d="M 186.941406 228.371094 C 205.636719 228.371094 220.796875 213.214844 220.796875 194.523438 L 220.796875 134.171875 C 220.796875 115.472656 205.636719 100.316406 186.941406 100.316406 C 168.242188 100.316406 153.082031 115.472656 153.082031 134.171875 L 153.082031 194.523438 C 153.082031 213.214844 168.242188 228.371094 186.941406 228.371094 " fill-opacity="1" fill-rule="nonzero"/><path fill="#8c52ff" d="M 234.03125 161.214844 C 230.375 161.214844 227.414062 164.171875 227.414062 167.832031 L 227.414062 194.515625 C 227.414062 216.832031 209.253906 234.992188 186.933594 234.992188 C 164.625 234.992188 146.464844 216.832031 146.464844 194.515625 L 146.464844 167.832031 C 146.464844 164.171875 143.507812 161.214844 139.847656 161.214844 C 136.191406 161.214844 133.230469 164.171875 133.230469 167.832031 L 133.230469 194.515625 C 133.230469 221.867188 153.855469 244.253906 180.316406 247.554688 L 180.316406 271.054688 L 170.789062 271.054688 C 167.132812 271.054688 164.175781 274.015625 164.175781 277.675781 C 164.175781 281.332031 167.132812 284.292969 170.789062 284.292969 L 203.074219 284.292969 C 206.734375 284.292969 209.695312 281.332031 209.695312 277.675781 C 209.695312 274.015625 206.734375 271.054688 203.074219 271.054688 L 193.550781 271.054688 L 193.550781 247.554688 C 220.027344 244.253906 240.648438 221.867188 240.648438 194.515625 L 240.648438 167.832031 C 240.648438 164.171875 237.691406 161.214844 234.03125 161.214844 " fill-opacity="1" fill-rule="nonzero"/></svg>