<svg xmlns="http://www.w3.org/2000/svg" xmlns:xlink="http://www.w3.org/1999/xlink" width="500" zoomAndPan="magnify" viewBox="0 0 375 374.999991" height="500" preserveAspectRatio="xMidYMid meet" version="1.0"><defs><g/><clipPath id="fc4b277a49"><path d="M 130.125 80.023438 L 185.625 80.023438 L 185.625 191.773438 L 130.125 191.773438 Z M 130.125 80.023438 " clip-rule="nonzero"/></clipPath><clipPath id="2cb4ac5b1f"><path d="M 193.875 126.132812 L 244.875 126.132812 L 244.875 228.554688 L 193.875 228.554688 Z M 193.875 126.132812 " clip-rule="nonzero"/></clipPath><clipPath id="297489ee2a"><path d="M 193.664062 80.222656 L 239.574219 80.222656 L 239.574219 126.132812 L 193.664062 126.132812 Z M 193.664062 80.222656 " clip-rule="nonzero"/></clipPath><clipPath id="decb083599"><path d="M 216.621094 80.222656 C 203.941406 80.222656 193.664062 90.5 193.664062 103.175781 C 193.664062 115.855469 203.941406 126.132812 216.621094 126.132812 C 229.296875 126.132812 239.574219 115.855469 239.574219 103.175781 C 239.574219 90.5 229.296875 80.222656 216.621094 80.222656 Z M 216.621094 80.222656 " clip-rule="nonzero"/></clipPath><clipPath id="ceb7cbc8de"><path d="M 130.394531 181.210938 L 185.894531 181.210938 L 185.894531 228.460938 L 130.394531 228.460938 Z M 130.394531 181.210938 " clip-rule="nonzero"/></clipPath></defs><g clip-path="url(#fc4b277a49)"><path fill="#ff914d" d="M 130.109375 135.984375 C 130.109375 137.8125 130.199219 139.632812 130.378906 141.453125 C 130.558594 143.269531 130.824219 145.074219 131.179688 146.867188 C 131.539062 148.65625 131.980469 150.425781 132.511719 152.175781 C 133.042969 153.921875 133.65625 155.640625 134.355469 157.328125 C 135.054688 159.015625 135.832031 160.664062 136.695312 162.273438 C 137.554688 163.886719 138.492188 165.449219 139.507812 166.96875 C 140.523438 168.488281 141.609375 169.953125 142.769531 171.367188 C 143.925781 172.777344 145.152344 174.128906 146.445312 175.421875 C 147.734375 176.710938 149.085938 177.9375 150.5 179.097656 C 151.910156 180.253906 153.375 181.339844 154.894531 182.355469 C 156.414062 183.371094 157.980469 184.308594 159.589844 185.167969 C 161.199219 186.03125 162.851562 186.8125 164.539062 187.511719 C 166.226562 188.207031 167.941406 188.824219 169.691406 189.355469 C 171.4375 189.882812 173.207031 190.328125 175 190.683594 C 176.789062 191.039062 178.59375 191.308594 180.414062 191.488281 C 182.230469 191.664062 184.050781 191.753906 185.878906 191.753906 L 185.878906 80.203125 C 184.050781 80.203125 182.230469 80.292969 180.414062 80.472656 C 178.59375 80.652344 176.789062 80.921875 174.996094 81.277344 C 173.207031 81.632812 171.4375 82.078125 169.6875 82.605469 C 167.941406 83.136719 166.222656 83.753906 164.535156 84.453125 C 162.847656 85.148438 161.199219 85.929688 159.585938 86.792969 C 157.976562 87.652344 156.410156 88.589844 154.890625 89.605469 C 153.375 90.621094 151.90625 91.707031 150.496094 92.867188 C 149.082031 94.027344 147.730469 95.25 146.441406 96.542969 C 145.148438 97.835938 143.921875 99.1875 142.765625 100.597656 C 141.605469 102.011719 140.519531 103.476562 139.503906 104.996094 C 138.488281 106.515625 137.550781 108.082031 136.691406 109.691406 C 135.832031 111.300781 135.050781 112.953125 134.351562 114.640625 C 133.652344 116.328125 133.039062 118.046875 132.507812 119.792969 C 131.976562 121.542969 131.535156 123.3125 131.179688 125.105469 C 130.824219 126.894531 130.554688 128.699219 130.378906 130.519531 C 130.199219 132.335938 130.109375 134.160156 130.109375 135.984375 Z M 130.109375 135.984375 " fill-opacity="1" fill-rule="nonzero"/></g><g clip-path="url(#2cb4ac5b1f)"><path fill="#8c52ff" d="M 244.890625 177.332031 C 244.890625 179.011719 244.808594 180.683594 244.644531 182.351562 C 244.476562 184.023438 244.234375 185.679688 243.90625 187.324219 C 243.578125 188.96875 243.171875 190.59375 242.683594 192.199219 C 242.199219 193.804688 241.632812 195.382812 240.992188 196.929688 C 240.347656 198.480469 239.632812 199.996094 238.84375 201.472656 C 238.050781 202.953125 237.191406 204.390625 236.257812 205.785156 C 235.328125 207.179688 234.328125 208.523438 233.265625 209.820312 C 232.199219 211.117188 231.074219 212.359375 229.890625 213.542969 C 228.703125 214.730469 227.460938 215.855469 226.167969 216.917969 C 224.871094 217.984375 223.523438 218.980469 222.128906 219.914062 C 220.734375 220.84375 219.296875 221.707031 217.820312 222.496094 C 216.339844 223.289062 214.824219 224.003906 213.277344 224.644531 C 211.726562 225.289062 210.148438 225.851562 208.542969 226.339844 C 206.9375 226.824219 205.3125 227.234375 203.667969 227.558594 C 202.023438 227.886719 200.367188 228.132812 198.699219 228.296875 C 197.027344 228.460938 195.355469 228.542969 193.679688 228.542969 L 193.679688 126.113281 C 195.355469 126.113281 197.027344 126.195312 198.699219 126.359375 C 200.367188 126.523438 202.023438 126.769531 203.671875 127.097656 C 205.316406 127.421875 206.941406 127.832031 208.546875 128.316406 C 210.152344 128.804688 211.730469 129.371094 213.277344 130.011719 C 214.828125 130.652344 216.34375 131.371094 217.820312 132.160156 C 219.300781 132.953125 220.738281 133.8125 222.132812 134.746094 C 223.527344 135.675781 224.875 136.675781 226.167969 137.738281 C 227.464844 138.804688 228.707031 139.929688 229.894531 141.113281 C 231.078125 142.300781 232.203125 143.542969 233.269531 144.839844 C 234.332031 146.136719 235.332031 147.480469 236.261719 148.878906 C 237.195312 150.273438 238.054688 151.707031 238.84375 153.1875 C 239.636719 154.667969 240.351562 156.183594 240.992188 157.730469 C 241.636719 159.28125 242.199219 160.859375 242.6875 162.464844 C 243.171875 164.070312 243.578125 165.695312 243.90625 167.339844 C 244.234375 168.984375 244.480469 170.644531 244.644531 172.3125 C 244.808594 173.980469 244.890625 175.65625 244.890625 177.332031 Z M 244.890625 177.332031 " fill-opacity="1" fill-rule="nonzero"/></g><g clip-path="url(#297489ee2a)"><g clip-path="url(#decb083599)"><path fill="#ff66c4" d="M 193.664062 80.222656 L 239.574219 80.222656 L 239.574219 126.132812 L 193.664062 126.132812 Z M 193.664062 80.222656 " fill-opacity="1" fill-rule="nonzero"/></g></g><g clip-path="url(#ceb7cbc8de)"><path fill="#ffde59" d="M 185.910156 237 C 185.910156 235.171875 185.820312 233.351562 185.640625 231.53125 C 185.460938 229.714844 185.191406 227.910156 184.835938 226.117188 C 184.480469 224.328125 184.039062 222.558594 183.507812 220.808594 C 182.976562 219.0625 182.363281 217.34375 181.664062 215.65625 C 180.964844 213.96875 180.183594 212.320312 179.324219 210.707031 C 178.460938 209.097656 177.523438 207.53125 176.507812 206.015625 C 175.496094 204.496094 174.40625 203.03125 173.25 201.617188 C 172.089844 200.207031 170.867188 198.855469 169.574219 197.5625 C 168.28125 196.273438 166.929688 195.046875 165.519531 193.886719 C 164.105469 192.730469 162.640625 191.640625 161.121094 190.628906 C 159.605469 189.613281 158.039062 188.675781 156.429688 187.8125 C 154.816406 186.953125 153.167969 186.171875 151.480469 185.472656 C 149.792969 184.773438 148.074219 184.160156 146.328125 183.628906 C 144.578125 183.101562 142.808594 182.65625 141.019531 182.300781 C 139.226562 181.945312 137.421875 181.675781 135.605469 181.496094 C 133.789062 181.316406 131.964844 181.230469 130.140625 181.230469 L 130.140625 292.777344 C 131.964844 292.777344 133.789062 292.6875 135.605469 292.511719 C 137.425781 292.332031 139.230469 292.0625 141.019531 291.707031 C 142.8125 291.351562 144.582031 290.90625 146.328125 290.375 C 148.078125 289.847656 149.796875 289.230469 151.484375 288.53125 C 153.171875 287.832031 154.820312 287.054688 156.429688 286.191406 C 158.042969 285.332031 159.605469 284.394531 161.125 283.378906 C 162.644531 282.363281 164.109375 281.277344 165.523438 280.117188 C 166.933594 278.957031 168.285156 277.730469 169.578125 276.441406 C 170.871094 275.148438 172.09375 273.796875 173.253906 272.382812 C 174.410156 270.972656 175.5 269.507812 176.511719 267.988281 C 177.527344 266.46875 178.464844 264.902344 179.328125 263.292969 C 180.1875 261.679688 180.96875 260.03125 181.667969 258.34375 C 182.363281 256.65625 182.980469 254.9375 183.507812 253.191406 C 184.039062 251.441406 184.484375 249.671875 184.839844 247.878906 C 185.195312 246.089844 185.460938 244.285156 185.640625 242.464844 C 185.820312 240.648438 185.910156 238.824219 185.910156 237 Z M 185.910156 237 " fill-opacity="1" fill-rule="nonzero"/></g><g fill="#000000" fill-opacity="1"><g transform="translate(50.073818, 284.508418)"><g><path d="M 31.234375 -9.859375 C 31.234375 -6.503906 29.988281 -3.941406 27.5 -2.171875 C 25.019531 -0.398438 21.375 0.484375 16.5625 0.484375 C 12.175781 0.484375 8.734375 -0.289062 6.234375 -1.84375 C 3.742188 -3.394531 2.144531 -5.75 1.4375 -8.90625 L 8.359375 -10.046875 C 8.828125 -8.234375 9.738281 -6.914062 11.09375 -6.09375 C 12.457031 -5.28125 14.34375 -4.875 16.75 -4.875 C 21.757812 -4.875 24.265625 -6.398438 24.265625 -9.453125 C 24.265625 -10.421875 23.972656 -11.21875 23.390625 -11.84375 C 22.816406 -12.476562 22.007812 -13.003906 20.96875 -13.421875 C 19.925781 -13.847656 17.921875 -14.359375 14.953125 -14.953125 C 12.398438 -15.554688 10.617188 -16.039062 9.609375 -16.40625 C 8.609375 -16.769531 7.703125 -17.195312 6.890625 -17.6875 C 6.085938 -18.1875 5.398438 -18.78125 4.828125 -19.46875 C 4.265625 -20.164062 3.820312 -20.984375 3.5 -21.921875 C 3.1875 -22.867188 3.03125 -23.945312 3.03125 -25.15625 C 3.03125 -28.25 4.191406 -30.617188 6.515625 -32.265625 C 8.835938 -33.910156 12.21875 -34.734375 16.65625 -34.734375 C 20.894531 -34.734375 24.078125 -34.066406 26.203125 -32.734375 C 28.335938 -31.410156 29.710938 -29.21875 30.328125 -26.15625 L 23.390625 -25.203125 C 23.035156 -26.679688 22.3125 -27.789062 21.21875 -28.53125 C 20.125 -29.28125 18.554688 -29.65625 16.515625 -29.65625 C 12.171875 -29.65625 10 -28.296875 10 -25.578125 C 10 -24.679688 10.226562 -23.945312 10.6875 -23.375 C 11.15625 -22.8125 11.84375 -22.332031 12.75 -21.9375 C 13.65625 -21.539062 15.492188 -21.046875 18.265625 -20.453125 C 21.546875 -19.753906 23.894531 -19.109375 25.3125 -18.515625 C 26.726562 -17.921875 27.847656 -17.234375 28.671875 -16.453125 C 29.503906 -15.671875 30.140625 -14.734375 30.578125 -13.640625 C 31.015625 -12.546875 31.234375 -11.285156 31.234375 -9.859375 Z M 31.234375 -9.859375 "/></g></g></g><g fill="#000000" fill-opacity="1"><g transform="translate(80.060495, 284.508418)"><g><path d="M 10.203125 0.4375 C 8.191406 0.4375 6.644531 -0.109375 5.5625 -1.203125 C 4.476562 -2.296875 3.9375 -3.953125 3.9375 -6.171875 L 3.9375 -21.65625 L 0.609375 -21.65625 L 0.609375 -26.28125 L 4.28125 -26.28125 L 6.40625 -32.4375 L 10.6875 -32.4375 L 10.6875 -26.28125 L 15.65625 -26.28125 L 15.65625 -21.65625 L 10.6875 -21.65625 L 10.6875 -8.015625 C 10.6875 -6.734375 10.925781 -5.789062 11.40625 -5.1875 C 11.894531 -4.582031 12.648438 -4.28125 13.671875 -4.28125 C 14.203125 -4.28125 14.960938 -4.390625 15.953125 -4.609375 L 15.953125 -0.390625 C 14.265625 0.160156 12.347656 0.4375 10.203125 0.4375 Z M 10.203125 0.4375 "/></g></g></g><g fill="#000000" fill-opacity="1"><g transform="translate(93.437934, 284.508418)"><g><path d="M 9.90625 -26.28125 L 9.90625 -11.53125 C 9.90625 -6.914062 11.460938 -4.609375 14.578125 -4.609375 C 16.222656 -4.609375 17.550781 -5.316406 18.5625 -6.734375 C 19.570312 -8.148438 20.078125 -9.96875 20.078125 -12.1875 L 20.078125 -26.28125 L 26.90625 -26.28125 L 26.90625 -5.875 C 26.90625 -3.644531 26.96875 -1.6875 27.09375 0 L 20.59375 0 C 20.394531 -2.332031 20.296875 -4.070312 20.296875 -5.21875 L 20.1875 -5.21875 C 19.28125 -3.226562 18.125 -1.78125 16.71875 -0.875 C 15.320312 0.03125 13.660156 0.484375 11.734375 0.484375 C 8.941406 0.484375 6.800781 -0.367188 5.3125 -2.078125 C 3.820312 -3.785156 3.078125 -6.289062 3.078125 -9.59375 L 3.078125 -26.28125 Z M 9.90625 -26.28125 "/></g></g></g><g fill="#000000" fill-opacity="1"><g transform="translate(120.632127, 284.508418)"><g><path d="M 20.5 0 C 20.4375 -0.238281 20.359375 -0.847656 20.265625 -1.828125 C 20.171875 -2.804688 20.125 -3.625 20.125 -4.28125 L 20.03125 -4.28125 C 18.5625 -1.101562 15.757812 0.484375 11.625 0.484375 C 8.570312 0.484375 6.210938 -0.707031 4.546875 -3.09375 C 2.878906 -5.476562 2.046875 -8.816406 2.046875 -13.109375 C 2.046875 -17.460938 2.921875 -20.828125 4.671875 -23.203125 C 6.429688 -25.578125 8.921875 -26.765625 12.140625 -26.765625 C 14.003906 -26.765625 15.609375 -26.375 16.953125 -25.59375 C 18.304688 -24.820312 19.347656 -23.664062 20.078125 -22.125 L 20.125 -22.125 L 20.078125 -26.453125 L 20.078125 -36.03125 L 26.90625 -36.03125 L 26.90625 -5.734375 C 26.90625 -4.109375 26.96875 -2.195312 27.09375 0 Z M 20.1875 -13.28125 C 20.1875 -16.113281 19.710938 -18.296875 18.765625 -19.828125 C 17.816406 -21.359375 16.421875 -22.125 14.578125 -22.125 C 12.742188 -22.125 11.378906 -21.378906 10.484375 -19.890625 C 9.597656 -18.410156 9.15625 -16.148438 9.15625 -13.109375 C 9.15625 -7.148438 10.941406 -4.171875 14.515625 -4.171875 C 16.316406 -4.171875 17.710938 -4.957031 18.703125 -6.53125 C 19.691406 -8.113281 20.1875 -10.363281 20.1875 -13.28125 Z M 20.1875 -13.28125 "/></g></g></g><g fill="#000000" fill-opacity="1"><g transform="translate(147.826317, 284.508418)"><g><path d="M 6.875 10.328125 C 5.238281 10.328125 3.804688 10.21875 2.578125 10 L 2.578125 5.140625 C 3.429688 5.273438 4.21875 5.34375 4.9375 5.34375 C 5.90625 5.34375 6.707031 5.1875 7.34375 4.875 C 7.988281 4.570312 8.5625 4.0625 9.0625 3.34375 C 9.570312 2.632812 10.144531 1.429688 10.78125 -0.265625 L 0.390625 -26.28125 L 7.59375 -26.28125 L 11.734375 -13.96875 C 12.378906 -12.195312 13.195312 -9.492188 14.1875 -5.859375 L 14.796875 -8.15625 L 16.375 -13.859375 L 20.25 -26.28125 L 27.390625 -26.28125 L 17 1.390625 C 15.601562 4.753906 14.15625 7.082031 12.65625 8.375 C 11.164062 9.675781 9.238281 10.328125 6.875 10.328125 Z M 6.875 10.328125 "/></g></g></g><g fill="#000000" fill-opacity="1"><g transform="translate(172.300865, 284.508418)"><g/></g></g><g fill="#000000" fill-opacity="1"><g transform="translate(182.934382, 284.508418)"><g><path d="M 33.65625 -9.765625 C 33.65625 -6.648438 32.488281 -4.242188 30.15625 -2.546875 C 27.832031 -0.847656 24.597656 0 20.453125 0 L 3.328125 0 L 3.328125 -34.21875 L 18.984375 -34.21875 C 23.160156 -34.21875 26.320312 -33.492188 28.46875 -32.046875 C 30.613281 -30.597656 31.6875 -28.457031 31.6875 -25.625 C 31.6875 -23.675781 31.148438 -22.035156 30.078125 -20.703125 C 29.003906 -19.367188 27.363281 -18.46875 25.15625 -18 C 27.925781 -17.675781 30.035156 -16.804688 31.484375 -15.390625 C 32.929688 -13.972656 33.65625 -12.097656 33.65625 -9.765625 Z M 24.484375 -24.65625 C 24.484375 -26.1875 23.992188 -27.273438 23.015625 -27.921875 C 22.035156 -28.566406 20.582031 -28.890625 18.65625 -28.890625 L 10.484375 -28.890625 L 10.484375 -20.421875 L 18.703125 -20.421875 C 20.722656 -20.421875 22.191406 -20.769531 23.109375 -21.46875 C 24.023438 -22.175781 24.484375 -23.238281 24.484375 -24.65625 Z M 26.46875 -10.328125 C 26.46875 -13.523438 24.171875 -15.125 19.578125 -15.125 L 10.484375 -15.125 L 10.484375 -5.3125 L 19.84375 -5.3125 C 22.132812 -5.3125 23.8125 -5.726562 24.875 -6.5625 C 25.9375 -7.394531 26.46875 -8.648438 26.46875 -10.328125 Z M 26.46875 -10.328125 "/></g></g></g><g fill="#000000" fill-opacity="1"><g transform="translate(215.664984, 284.508418)"><g><path d="M 9.90625 -26.28125 L 9.90625 -11.53125 C 9.90625 -6.914062 11.460938 -4.609375 14.578125 -4.609375 C 16.222656 -4.609375 17.550781 -5.316406 18.5625 -6.734375 C 19.570312 -8.148438 20.078125 -9.96875 20.078125 -12.1875 L 20.078125 -26.28125 L 26.90625 -26.28125 L 26.90625 -5.875 C 26.90625 -3.644531 26.96875 -1.6875 27.09375 0 L 20.59375 0 C 20.394531 -2.332031 20.296875 -4.070312 20.296875 -5.21875 L 20.1875 -5.21875 C 19.28125 -3.226562 18.125 -1.78125 16.71875 -0.875 C 15.320312 0.03125 13.660156 0.484375 11.734375 0.484375 C 8.941406 0.484375 6.800781 -0.367188 5.3125 -2.078125 C 3.820312 -3.785156 3.078125 -6.289062 3.078125 -9.59375 L 3.078125 -26.28125 Z M 9.90625 -26.28125 "/></g></g></g><g fill="#000000" fill-opacity="1"><g transform="translate(242.859173, 284.508418)"><g><path d="M 20.5 0 C 20.4375 -0.238281 20.359375 -0.847656 20.265625 -1.828125 C 20.171875 -2.804688 20.125 -3.625 20.125 -4.28125 L 20.03125 -4.28125 C 18.5625 -1.101562 15.757812 0.484375 11.625 0.484375 C 8.570312 0.484375 6.210938 -0.707031 4.546875 -3.09375 C 2.878906 -5.476562 2.046875 -8.816406 2.046875 -13.109375 C 2.046875 -17.460938 2.921875 -20.828125 4.671875 -23.203125 C 6.429688 -25.578125 8.921875 -26.765625 12.140625 -26.765625 C 14.003906 -26.765625 15.609375 -26.375 16.953125 -25.59375 C 18.304688 -24.820312 19.347656 -23.664062 20.078125 -22.125 L 20.125 -22.125 L 20.078125 -26.453125 L 20.078125 -36.03125 L 26.90625 -36.03125 L 26.90625 -5.734375 C 26.90625 -4.109375 26.96875 -2.195312 27.09375 0 Z M 20.1875 -13.28125 C 20.1875 -16.113281 19.710938 -18.296875 18.765625 -19.828125 C 17.816406 -21.359375 16.421875 -22.125 14.578125 -22.125 C 12.742188 -22.125 11.378906 -21.378906 10.484375 -19.890625 C 9.597656 -18.410156 9.15625 -16.148438 9.15625 -13.109375 C 9.15625 -7.148438 10.941406 -4.171875 14.515625 -4.171875 C 16.316406 -4.171875 17.710938 -4.957031 18.703125 -6.53125 C 19.691406 -8.113281 20.1875 -10.363281 20.1875 -13.28125 Z M 20.1875 -13.28125 "/></g></g></g><g fill="#000000" fill-opacity="1"><g transform="translate(270.053362, 284.508418)"><g><path d="M 20.5 0 C 20.4375 -0.238281 20.359375 -0.847656 20.265625 -1.828125 C 20.171875 -2.804688 20.125 -3.625 20.125 -4.28125 L 20.03125 -4.28125 C 18.5625 -1.101562 15.757812 0.484375 11.625 0.484375 C 8.570312 0.484375 6.210938 -0.707031 4.546875 -3.09375 C 2.878906 -5.476562 2.046875 -8.816406 2.046875 -13.109375 C 2.046875 -17.460938 2.921875 -20.828125 4.671875 -23.203125 C 6.429688 -25.578125 8.921875 -26.765625 12.140625 -26.765625 C 14.003906 -26.765625 15.609375 -26.375 16.953125 -25.59375 C 18.304688 -24.820312 19.347656 -23.664062 20.078125 -22.125 L 20.125 -22.125 L 20.078125 -26.453125 L 20.078125 -36.03125 L 26.90625 -36.03125 L 26.90625 -5.734375 C 26.90625 -4.109375 26.96875 -2.195312 27.09375 0 Z M 20.1875 -13.28125 C 20.1875 -16.113281 19.710938 -18.296875 18.765625 -19.828125 C 17.816406 -21.359375 16.421875 -22.125 14.578125 -22.125 C 12.742188 -22.125 11.378906 -21.378906 10.484375 -19.890625 C 9.597656 -18.410156 9.15625 -16.148438 9.15625 -13.109375 C 9.15625 -7.148438 10.941406 -4.171875 14.515625 -4.171875 C 16.316406 -4.171875 17.710938 -4.957031 18.703125 -6.53125 C 19.691406 -8.113281 20.1875 -10.363281 20.1875 -13.28125 Z M 20.1875 -13.28125 "/></g></g></g><g fill="#000000" fill-opacity="1"><g transform="translate(297.247552, 284.508418)"><g><path d="M 6.875 10.328125 C 5.238281 10.328125 3.804688 10.21875 2.578125 10 L 2.578125 5.140625 C 3.429688 5.273438 4.21875 5.34375 4.9375 5.34375 C 5.90625 5.34375 6.707031 5.1875 7.34375 4.875 C 7.988281 4.570312 8.5625 4.0625 9.0625 3.34375 C 9.570312 2.632812 10.144531 1.429688 10.78125 -0.265625 L 0.390625 -26.28125 L 7.59375 -26.28125 L 11.734375 -13.96875 C 12.378906 -12.195312 13.195312 -9.492188 14.1875 -5.859375 L 14.796875 -8.15625 L 16.375 -13.859375 L 20.25 -26.28125 L 27.390625 -26.28125 L 17 1.390625 C 15.601562 4.753906 14.15625 7.082031 12.65625 8.375 C 11.164062 9.675781 9.238281 10.328125 6.875 10.328125 Z M 6.875 10.328125 "/></g></g></g><g fill="#000000" fill-opacity="1"><g transform="translate(321.730161, 284.508418)"><g/></g></g></svg>