<svg xmlns="http://www.w3.org/2000/svg" xmlns:xlink="http://www.w3.org/1999/xlink" width="500" zoomAndPan="magnify" viewBox="0 0 375 374.999991" height="500" preserveAspectRatio="xMidYMid meet" version="1.0"><defs><clipPath id="0f76981732"><path d="M 38 37.5 L 328.402344 37.5 L 328.402344 327 L 38 327 Z M 38 37.5 " clip-rule="nonzero"/></clipPath></defs><g clip-path="url(#0f76981732)"><path fill="#8c52ff" d="M 183.625 315.832031 C 109.988281 315.832031 50.082031 255.917969 50.082031 182.285156 C 50.082031 108.640625 109.988281 48.734375 183.625 48.734375 C 257.265625 48.734375 317.175781 108.640625 317.175781 182.285156 C 317.175781 255.917969 257.265625 315.832031 183.625 315.832031 Z M 183.625 37.503906 C 103.796875 37.503906 38.851562 102.453125 38.851562 182.285156 C 38.851562 262.113281 103.796875 327.058594 183.625 327.058594 C 263.460938 327.058594 328.402344 262.113281 328.402344 182.285156 C 328.402344 102.453125 263.460938 37.503906 183.625 37.503906 " fill-opacity="1" fill-rule="nonzero"/></g><path fill="#8c52ff" d="M 216.144531 129.121094 L 122.308594 129.121094 C 114.148438 129.121094 107.527344 135.734375 107.527344 143.902344 L 107.527344 220.664062 C 107.527344 228.824219 114.148438 235.445312 122.308594 235.445312 L 216.144531 235.445312 C 224.3125 235.445312 230.929688 228.824219 230.929688 220.664062 L 230.929688 143.902344 C 230.929688 135.734375 224.3125 129.121094 216.144531 129.121094 " fill-opacity="1" fill-rule="nonzero"/><path fill="#8c52ff" d="M 248.980469 156.351562 L 237.640625 162.902344 L 237.640625 201.660156 L 248.980469 208.207031 C 253.75 210.972656 259.730469 207.519531 259.730469 202.003906 L 259.730469 162.5625 C 259.730469 157.042969 253.75 153.59375 248.980469 156.351562 " fill-opacity="1" fill-rule="nonzero"/></svg>