<svg xmlns="http://www.w3.org/2000/svg" xmlns:xlink="http://www.w3.org/1999/xlink" width="500" zoomAndPan="magnify" viewBox="0 0 375 374.999991" height="500" preserveAspectRatio="xMidYMid meet" version="1.0"><defs><clipPath id="66094e07b6"><path d="M 74 114 L 295 114 L 295 173 L 74 173 Z M 74 114 " clip-rule="nonzero"/></clipPath><clipPath id="4d6e70d0b3"><path d="M 407.480469 119.183594 L 245.679688 397.292969 L -32.425781 235.496094 L 129.371094 -42.613281 Z M 407.480469 119.183594 " clip-rule="nonzero"/></clipPath><clipPath id="d82f1ab42f"><path d="M 407.480469 119.183594 L 245.679688 397.292969 L -32.425781 235.496094 L 129.371094 -42.613281 Z M 407.480469 119.183594 " clip-rule="nonzero"/></clipPath><clipPath id="6f04b6978a"><path d="M 227 176 L 300 176 L 300 209 L 227 209 Z M 227 176 " clip-rule="nonzero"/></clipPath><clipPath id="43ed599d15"><path d="M 407.480469 119.183594 L 245.679688 397.292969 L -32.425781 235.496094 L 129.371094 -42.613281 Z M 407.480469 119.183594 " clip-rule="nonzero"/></clipPath><clipPath id="d7364094a4"><path d="M 407.480469 119.183594 L 245.679688 397.292969 L -32.425781 235.496094 L 129.371094 -42.613281 Z M 407.480469 119.183594 " clip-rule="nonzero"/></clipPath><clipPath id="677b5f8de8"><path d="M 70 176 L 142 176 L 142 208 L 70 208 Z M 70 176 " clip-rule="nonzero"/></clipPath><clipPath id="4d5838d39e"><path d="M 407.480469 119.183594 L 245.679688 397.292969 L -32.425781 235.496094 L 129.371094 -42.613281 Z M 407.480469 119.183594 " clip-rule="nonzero"/></clipPath><clipPath id="4ccce137d0"><path d="M 407.480469 119.183594 L 245.679688 397.292969 L -32.425781 235.496094 L 129.371094 -42.613281 Z M 407.480469 119.183594 " clip-rule="nonzero"/></clipPath><clipPath id="748cb7037e"><path d="M 26 16 L 349 16 L 349 339 L 26 339 Z M 26 16 " clip-rule="nonzero"/></clipPath><clipPath id="dd7811285e"><path d="M 407.480469 119.183594 L 245.679688 397.292969 L -32.425781 235.496094 L 129.371094 -42.613281 Z M 407.480469 119.183594 " clip-rule="nonzero"/></clipPath><clipPath id="0ef2e20895"><path d="M 407.480469 119.183594 L 245.679688 397.292969 L -32.425781 235.496094 L 129.371094 -42.613281 Z M 407.480469 119.183594 " clip-rule="nonzero"/></clipPath></defs><g clip-path="url(#66094e07b6)"><g clip-path="url(#4d6e70d0b3)"><g clip-path="url(#d82f1ab42f)"><path fill="#ff914d" d="M 233 172.125 C 233.117188 137.410156 135.71875 133.816406 135.59375 171.800781 L 74.589844 171.597656 C 74.644531 155.570312 76.183594 142.875 92.226562 133.59375 C 136.773438 107.816406 235.105469 108.125 278.304688 134.878906 C 293.308594 144.171875 294.054688 156.628906 294.003906 172.328125 Z M 233 172.125 " fill-opacity="1" fill-rule="evenodd"/></g></g></g><g clip-path="url(#6f04b6978a)"><g clip-path="url(#43ed599d15)"><g clip-path="url(#d7364094a4)"><path fill="#ff914d" d="M 227.898438 183.746094 C 227.914062 179.992188 230.980469 176.945312 234.734375 176.957031 L 292.242188 177.148438 C 295.996094 177.160156 299.042969 180.230469 299.03125 183.980469 L 298.972656 201.429688 C 298.960938 205.183594 295.890625 208.230469 292.140625 208.21875 L 234.628906 208.027344 C 230.878906 208.015625 227.828125 204.945312 227.84375 201.195312 Z M 227.898438 183.746094 " fill-opacity="1" fill-rule="evenodd"/></g></g></g><g clip-path="url(#677b5f8de8)"><g clip-path="url(#4d5838d39e)"><g clip-path="url(#4ccce137d0)"><path fill="#ff914d" d="M 70.789062 183.222656 C 70.800781 179.472656 73.871094 176.421875 77.621094 176.433594 L 135.132812 176.625 C 138.882812 176.636719 141.933594 179.707031 141.921875 183.457031 L 141.863281 200.910156 C 141.851562 204.660156 138.78125 207.710938 135.027344 207.699219 L 77.519531 207.507812 C 73.769531 207.496094 70.71875 204.425781 70.730469 200.675781 Z M 70.789062 183.222656 " fill-opacity="1" fill-rule="evenodd"/></g></g></g><g clip-path="url(#748cb7037e)"><g clip-path="url(#dd7811285e)"><g clip-path="url(#0ef2e20895)"><path fill="#ff914d" d="M 326.59375 258.21875 L 326.558594 258.199219 C 304.214844 296.605469 268.441406 322.316406 228.675781 332.828125 C 188.910156 343.339844 145.105469 338.671875 106.699219 316.328125 L 106.679688 316.363281 L 106.675781 316.359375 L 106.691406 316.324219 C 68.285156 293.980469 42.578125 258.207031 32.066406 218.441406 C 21.554688 178.675781 26.21875 134.871094 48.5625 96.464844 L 48.53125 96.445312 L 48.535156 96.441406 L 48.566406 96.457031 C 70.910156 58.050781 106.683594 32.34375 146.453125 21.832031 C 186.21875 11.320312 230.019531 15.984375 268.429688 38.328125 L 268.445312 38.296875 L 268.453125 38.300781 L 268.433594 38.332031 C 306.839844 60.675781 332.550781 96.453125 343.0625 136.21875 C 353.574219 175.984375 348.90625 219.785156 326.5625 258.195312 L 326.597656 258.210938 Z M 310.007812 248.570312 L 309.976562 248.550781 L 309.980469 248.546875 L 310.011719 248.566406 C 329.660156 214.789062 333.75 176.203125 324.476562 141.132812 C 315.203125 106.0625 292.574219 74.535156 258.800781 54.886719 L 258.785156 54.917969 L 258.777344 54.914062 L 258.796875 54.882812 C 225.019531 35.234375 186.433594 31.144531 151.363281 40.417969 C 116.292969 49.691406 84.765625 72.320312 65.117188 106.09375 L 65.148438 106.113281 L 65.144531 106.117188 L 65.113281 106.101562 C 45.464844 139.875 41.375 178.460938 50.648438 213.53125 C 59.921875 248.601562 82.550781 280.128906 116.324219 299.777344 L 116.34375 299.746094 L 116.347656 299.75 L 116.332031 299.78125 C 150.105469 319.429688 188.691406 323.519531 223.761719 314.246094 C 258.832031 304.972656 290.359375 282.34375 310.007812 248.570312 Z M 310.007812 248.570312 " fill-opacity="1" fill-rule="nonzero"/></g></g></g></svg>